<svg width="137" height="80" viewBox="0 0 137 80" fill="none" xmlns="http://www.w3.org/2000/svg">
<path d="M33.3428 73.9163V73.4015H35.4699V73.9163L34.8069 74.0297V76.0686H37.6783V74.0297L37.0154 73.9163V73.4015H39.1425V73.9163L38.4795 74.0297V78.679L39.1425 78.7925V79.3032H37.0154V78.7925L37.6783 78.679V76.6969H34.8069V78.679L35.4699 78.7925V79.3032H33.3428V78.7925L34.0057 78.679V74.0297L33.3428 73.9163Z" fill="#999591"/>
<path d="M42.689 79.3032C42.6646 79.1843 42.6456 79.0776 42.6321 78.983C42.6185 78.8884 42.609 78.7939 42.6036 78.6993C42.449 78.8966 42.2552 79.0614 42.022 79.1938C41.7915 79.3235 41.5448 79.3884 41.2818 79.3884C40.8236 79.3884 40.4751 79.2776 40.2365 79.056C39.9979 78.8317 39.8786 78.5169 39.8786 78.1115C39.8786 77.6954 40.0467 77.3752 40.3829 77.1509C40.7219 76.9239 41.1855 76.8104 41.7739 76.8104H42.5995V76.2997C42.5995 76.0429 42.5182 75.8403 42.3555 75.6917C42.1928 75.5403 41.9664 75.4647 41.6763 75.4647C41.4756 75.4647 41.298 75.4903 41.1435 75.5417C40.9917 75.593 40.8683 75.6633 40.7734 75.7525L40.688 76.2145H40.0698V75.3633C40.2704 75.2039 40.5131 75.0769 40.7978 74.9823C41.0825 74.885 41.3916 74.8364 41.7251 74.8364C42.224 74.8364 42.628 74.9634 42.9371 75.2174C43.2462 75.4714 43.4007 75.8349 43.4007 76.3078V78.4196C43.4007 78.4764 43.4007 78.5317 43.4007 78.5858C43.4035 78.6398 43.4075 78.6939 43.4129 78.7479L43.7383 78.7925V79.3032H42.689ZM41.3997 78.7196C41.6654 78.7196 41.9081 78.6561 42.1277 78.529C42.3474 78.402 42.5046 78.2494 42.5995 78.071V77.3495H41.7454C41.4173 77.3495 41.1571 77.4252 40.9645 77.5765C40.7747 77.7278 40.6798 77.9116 40.6798 78.1278C40.6798 78.3196 40.7395 78.4669 40.8588 78.5696C40.9781 78.6696 41.1584 78.7196 41.3997 78.7196Z" fill="#999591"/>
<path d="M44.4053 78.7925L45.0683 78.679V75.5457L44.4053 75.4322V74.9174H45.8695V78.679L46.5324 78.7925V79.3032H44.4053V78.7925ZM45.8695 73.7946H45.0683V72.9799H45.8695V73.7946Z" fill="#999591"/>
<path d="M47.1466 75.4322V74.9174H48.5253L48.6026 75.5538C48.7273 75.3295 48.8805 75.1539 49.0622 75.0269C49.2465 74.8999 49.4567 74.8364 49.6926 74.8364C49.7549 74.8364 49.8186 74.8418 49.8837 74.8526C49.9515 74.8607 50.003 74.8702 50.0383 74.881L49.9325 75.6227L49.477 75.5984C49.2655 75.5984 49.0879 75.6484 48.9442 75.7484C48.8005 75.8457 48.6893 75.9835 48.6107 76.1618V78.679L49.2737 78.7925V79.3032H47.1466V78.7925L47.8095 78.679V75.5457L47.1466 75.4322Z" fill="#999591"/>
<path d="M52.4907 78.7641C52.7565 78.7641 52.9896 78.6831 53.1903 78.5209C53.3936 78.3561 53.4953 78.1548 53.4953 77.917H54.2152L54.2233 77.9413C54.2369 78.3196 54.0674 78.6561 53.7149 78.9506C53.3652 79.2424 52.9571 79.3884 52.4907 79.3884C51.8509 79.3884 51.3614 79.1803 51.0225 78.7641C50.6863 78.348 50.5182 77.8251 50.5182 77.1955V77.0252C50.5182 76.401 50.6877 75.8808 51.0266 75.4647C51.3655 75.0458 51.8536 74.8364 52.4907 74.8364C52.8432 74.8364 53.1591 74.8945 53.4384 75.0107C53.7204 75.1269 53.9535 75.2863 54.1379 75.489L54.1745 76.4618H53.536L53.3611 75.7727C53.2662 75.6808 53.1442 75.6065 52.9951 75.5498C52.8459 75.493 52.6778 75.4647 52.4907 75.4647C52.0705 75.4647 51.7695 75.616 51.5878 75.9186C51.4089 76.2186 51.3194 76.5875 51.3194 77.0252V77.1955C51.3194 77.644 51.4089 78.0183 51.5878 78.3183C51.7668 78.6155 52.0678 78.7641 52.4907 78.7641Z" fill="#999591"/>
<path d="M58.1522 78.6547C58.0139 78.8898 57.8349 79.0709 57.6153 79.1979C57.3984 79.3249 57.1476 79.3884 56.8629 79.3884C56.3857 79.3884 56.0129 79.2357 55.7444 78.9303C55.476 78.625 55.3418 78.1494 55.3418 77.5035V75.5457L54.8375 75.4322V74.9174H56.143V77.5116C56.143 77.9791 56.2122 78.3007 56.3504 78.4764C56.4887 78.652 56.7043 78.7398 56.9971 78.7398C57.2818 78.7398 57.5163 78.6831 57.7007 78.5696C57.8878 78.4534 58.0288 78.2899 58.1237 78.0791V75.5457L57.534 75.4322V74.9174H58.9249V78.679L59.4292 78.7925V79.3032H58.205L58.1522 78.6547Z" fill="#999591"/>
<path d="M61.4628 73.8595V74.9174H62.2966V75.5092H61.4628V78.1723C61.4628 78.3777 61.5048 78.5223 61.5889 78.6061C61.6756 78.6898 61.7895 78.7317 61.9305 78.7317C62.001 78.7317 62.0796 78.7263 62.1664 78.7155C62.2559 78.702 62.3304 78.6885 62.3901 78.675L62.4999 79.2222C62.424 79.2708 62.3128 79.31 62.1664 79.3397C62.02 79.3722 61.8736 79.3884 61.7272 79.3884C61.4018 79.3884 61.1428 79.2911 60.9503 79.0965C60.7578 78.8993 60.6616 78.5912 60.6616 78.1723V75.5092H59.9661V74.9174H60.6616V73.8595H61.4628Z" fill="#999591"/>
<path d="M66.4816 76.2956H65.8797L65.7495 75.7687C65.6519 75.6768 65.5286 75.6038 65.3794 75.5498C65.233 75.493 65.0663 75.4647 64.8792 75.4647C64.5945 75.4647 64.383 75.5268 64.2447 75.6511C64.1064 75.7754 64.0373 75.9254 64.0373 76.101C64.0373 76.274 64.0983 76.4105 64.2203 76.5104C64.3423 76.6104 64.5904 76.6996 64.9646 76.778C65.5204 76.8969 65.9339 77.059 66.205 77.2644C66.4762 77.467 66.6118 77.74 66.6118 78.0832C66.6118 78.4723 66.4531 78.7871 66.1359 79.0276C65.8214 79.2681 65.4092 79.3884 64.8995 79.3884C64.566 79.3884 64.2664 79.3505 64.0007 79.2749C63.735 79.1965 63.4977 79.0844 63.2889 78.9384L63.2849 77.9372H63.8868L64.0373 78.525C64.1295 78.6088 64.2542 78.6696 64.4115 78.7074C64.5714 78.7452 64.7341 78.7641 64.8995 78.7641C65.1842 78.7641 65.4065 78.7074 65.5665 78.5939C65.7292 78.4777 65.8105 78.3264 65.8105 78.1399C65.8105 77.9643 65.7428 77.8197 65.6072 77.7062C65.4743 77.5927 65.2208 77.4941 64.8466 77.4103C64.3125 77.2941 63.9098 77.136 63.6387 76.9361C63.3676 76.7361 63.232 76.4659 63.232 76.1254C63.232 75.7687 63.3838 75.4647 63.6875 75.2133C63.9939 74.962 64.3911 74.8364 64.8792 74.8364C65.2127 74.8364 65.5123 74.8796 65.778 74.9661C66.0437 75.0526 66.2647 75.1728 66.4409 75.3268L66.4816 76.2956Z" fill="#999591"/>
<path d="M69.3733 77.7143C69.3733 77.3846 69.4682 77.0968 69.658 76.8509C69.8505 76.6023 70.1366 76.3537 70.5162 76.1051C70.3047 75.8376 70.1474 75.5998 70.0444 75.3917C69.9414 75.1809 69.8899 74.9647 69.8899 74.7431C69.8899 74.2865 70.0214 73.9352 70.2844 73.6893C70.5501 73.4407 70.9148 73.3163 71.3784 73.3163C71.8068 73.3163 72.1552 73.4393 72.4237 73.6852C72.6921 73.9311 72.8263 74.227 72.8263 74.5729C72.8263 74.8377 72.7545 75.0674 72.6108 75.262C72.4698 75.4538 72.2596 75.6511 71.9804 75.8538L71.537 76.1781L72.9199 77.8359C73.031 77.6603 73.1178 77.4657 73.1801 77.2522C73.2425 77.0387 73.2737 76.8131 73.2737 76.5753H73.9895C73.9895 76.9293 73.9366 77.2576 73.8309 77.5603C73.7251 77.8629 73.5719 78.1345 73.3713 78.375L74.1237 79.283L74.1156 79.3032H73.1842L72.8385 78.8898C72.6216 79.0519 72.3816 79.1762 72.1186 79.2627C71.8556 79.3465 71.5831 79.3884 71.3011 79.3884C70.7128 79.3884 70.2437 79.233 69.8939 78.9222C69.5469 78.6115 69.3733 78.2088 69.3733 77.7143ZM71.3011 78.7641C71.4964 78.7641 71.6889 78.7317 71.8787 78.6669C72.0685 78.5993 72.2474 78.5034 72.4155 78.3791L70.9473 76.6158L70.7846 76.7334C70.5379 76.9171 70.3738 77.0928 70.2925 77.2603C70.2139 77.4279 70.1746 77.5792 70.1746 77.7143C70.1746 78.0197 70.2708 78.271 70.4633 78.4682C70.6558 78.6655 70.9351 78.7641 71.3011 78.7641ZM70.6911 74.735C70.6911 74.8783 70.7277 75.0282 70.8009 75.185C70.8741 75.339 70.9839 75.5079 71.1303 75.6917L71.6916 75.3066C71.8461 75.2039 71.9505 75.0931 72.0048 74.9742C72.0617 74.8526 72.0902 74.7188 72.0902 74.5729C72.0902 74.4081 72.0237 74.2621 71.8909 74.1351C71.7607 74.0081 71.5899 73.9446 71.3784 73.9446C71.1588 73.9446 70.9893 74.0216 70.87 74.1757C70.7507 74.327 70.6911 74.5135 70.6911 74.735Z" fill="#999591"/>
<path d="M80.9687 75.1444H80.3627L80.2122 74.3013C80.0902 74.1986 79.9275 74.1135 79.7241 74.046C79.5208 73.9784 79.2849 73.9446 79.0165 73.9446C78.5908 73.9446 78.264 74.0352 78.0363 74.2162C77.8085 74.3946 77.6946 74.6283 77.6946 74.9174C77.6946 75.1742 77.8099 75.389 78.0403 75.5619C78.2735 75.7322 78.6491 75.8822 79.1669 76.0119C79.7906 76.1659 80.2637 76.3929 80.5864 76.6928C80.9117 76.9928 81.0744 77.3644 81.0744 77.8075C81.0744 78.2831 80.8792 78.6655 80.4888 78.9547C80.101 79.2438 79.5926 79.3884 78.9636 79.3884C78.5081 79.3884 78.1027 79.3141 77.7475 79.1654C77.395 79.0168 77.1076 78.8222 76.8853 78.5817V77.4833H77.4872L77.6418 78.3304C77.7963 78.4574 77.9807 78.5615 78.1949 78.6425C78.4091 78.7236 78.6653 78.7641 78.9636 78.7641C79.3676 78.7641 79.6862 78.679 79.9194 78.5088C80.1552 78.3385 80.2732 78.1075 80.2732 77.8156C80.2732 77.5454 80.1715 77.3198 79.9682 77.1387C79.7648 76.955 79.4055 76.8009 78.8904 76.6766C78.264 76.528 77.7746 76.3091 77.4221 76.02C77.0697 75.7308 76.8934 75.3674 76.8934 74.9296C76.8934 74.4675 77.09 74.0838 77.4832 73.7784C77.8763 73.4704 78.3874 73.3163 79.0165 73.3163C79.4313 73.3163 79.8082 73.388 80.1471 73.5312C80.4888 73.6717 80.7626 73.8433 80.9687 74.046V75.1444Z" fill="#999591"/>
<path d="M81.7211 78.7925L82.384 78.679V73.6082L81.7211 73.4947V72.9799H83.1852V75.5011C83.3371 75.2904 83.5228 75.1269 83.7424 75.0107C83.9621 74.8945 84.2061 74.8364 84.4745 74.8364C84.9463 74.8364 85.3123 74.9769 85.5726 75.2579C85.8329 75.539 85.9631 75.9713 85.9631 76.555V78.679L86.626 78.7925V79.3032H84.4989V78.7925L85.1619 78.679V76.5469C85.1619 76.1848 85.0832 75.9173 84.926 75.7443C84.7714 75.5714 84.5396 75.4849 84.2305 75.4849C84.0109 75.4849 83.8102 75.5376 83.6286 75.643C83.4496 75.7457 83.3018 75.8862 83.1852 76.0646V78.679L83.8482 78.7925V79.3032H81.7211V78.7925Z" fill="#999591"/>
<path d="M90.079 79.3032C90.0546 79.1843 90.0356 79.0776 90.0221 78.983C90.0085 78.8884 89.999 78.7939 89.9936 78.6993C89.839 78.8966 89.6452 79.0614 89.412 79.1938C89.1815 79.3235 88.9348 79.3884 88.6718 79.3884C88.2136 79.3884 87.8651 79.2776 87.6265 79.056C87.3879 78.8317 87.2686 78.5169 87.2686 78.1115C87.2686 77.6954 87.4367 77.3752 87.7729 77.1509C88.1119 76.9239 88.5755 76.8104 89.1639 76.8104H89.9895V76.2997C89.9895 76.0429 89.9082 75.8403 89.7455 75.6917C89.5828 75.5403 89.3564 75.4647 89.0663 75.4647C88.8656 75.4647 88.688 75.4903 88.5335 75.5417C88.3817 75.593 88.2583 75.6633 88.1634 75.7525L88.078 76.2145H87.4598V75.3633C87.6604 75.2039 87.9031 75.0769 88.1878 74.9823C88.4725 74.885 88.7816 74.8364 89.1151 74.8364C89.614 74.8364 90.018 74.9634 90.3271 75.2174C90.6362 75.4714 90.7907 75.8349 90.7907 76.3078V78.4196C90.7907 78.4764 90.7907 78.5317 90.7907 78.5858C90.7935 78.6398 90.7975 78.6939 90.8029 78.7479L91.1283 78.7925V79.3032H90.079ZM88.7897 78.7196C89.0554 78.7196 89.2981 78.6561 89.5177 78.529C89.7374 78.402 89.8946 78.2494 89.9895 78.071V77.3495H89.1354C88.8074 77.3495 88.5471 77.4252 88.3545 77.5765C88.1647 77.7278 88.0699 77.9116 88.0699 78.1278C88.0699 78.3196 88.1295 78.4669 88.2488 78.5696C88.3681 78.6696 88.5484 78.7196 88.7897 78.7196Z" fill="#999591"/>
<path d="M93.2392 75.4322L92.7104 75.5133L93.6174 78.0102L93.6906 78.3264H93.715L93.7923 78.0102L94.6708 75.5133L94.138 75.4322V74.9174H95.838V75.4322L95.4761 75.493L93.9997 79.3032H93.3937L91.9011 75.493L91.5391 75.4322V74.9174H93.2392V75.4322Z" fill="#999591"/>
<path d="M98.3352 79.3884C97.7225 79.3884 97.2344 79.1857 96.8711 78.7804C96.5105 78.3723 96.3302 77.844 96.3302 77.1955V77.0171C96.3302 76.3929 96.5159 75.8741 96.8874 75.4606C97.2615 75.0445 97.7035 74.8364 98.2132 74.8364C98.8043 74.8364 99.2517 75.0147 99.5554 75.3714C99.8618 75.7281 100.015 76.2037 100.015 76.7982V77.2968H97.1598L97.1476 77.3171C97.1558 77.7386 97.2629 78.0859 97.4689 78.3588C97.675 78.629 97.9638 78.7641 98.3352 78.7641C98.6064 78.7641 98.8436 78.7263 99.047 78.6506C99.2531 78.5723 99.4307 78.4655 99.5798 78.3304L99.8929 78.8493C99.7357 79.0006 99.5269 79.129 99.2666 79.2343C99.009 79.337 98.6986 79.3884 98.3352 79.3884ZM98.2132 75.4647C97.9448 75.4647 97.7157 75.5782 97.5259 75.8051C97.3361 76.0294 97.2195 76.3118 97.1761 76.6523L97.1842 76.6726H99.2137V76.5672C99.2137 76.2537 99.1297 75.9916 98.9616 75.7808C98.7935 75.57 98.544 75.4647 98.2132 75.4647Z" fill="#999591"/>
<path d="M104.176 76.2956H103.574L103.444 75.7687C103.346 75.6768 103.223 75.6038 103.073 75.5498C102.927 75.493 102.76 75.4647 102.573 75.4647C102.288 75.4647 102.077 75.5268 101.939 75.6511C101.8 75.7754 101.731 75.9254 101.731 76.101C101.731 76.274 101.792 76.4105 101.914 76.5104C102.036 76.6104 102.284 76.6996 102.659 76.778C103.214 76.8969 103.628 77.059 103.899 77.2644C104.17 77.467 104.306 77.74 104.306 78.0832C104.306 78.4723 104.147 78.7871 103.83 79.0276C103.515 79.2681 103.103 79.3884 102.594 79.3884C102.26 79.3884 101.96 79.3505 101.695 79.2749C101.429 79.1965 101.192 79.0844 100.983 78.9384L100.979 77.9372H101.581L101.731 78.525C101.823 78.6088 101.948 78.6696 102.105 78.7074C102.265 78.7452 102.428 78.7641 102.594 78.7641C102.878 78.7641 103.101 78.7074 103.261 78.5939C103.423 78.4777 103.505 78.3264 103.505 78.1399C103.505 77.9643 103.437 77.8197 103.301 77.7062C103.168 77.5927 102.915 77.4941 102.541 77.4103C102.006 77.2941 101.604 77.136 101.333 76.9361C101.062 76.7361 100.926 76.4659 100.926 76.1254C100.926 75.7687 101.078 75.4647 101.382 75.2133C101.688 74.962 102.085 74.8364 102.573 74.8364C102.907 74.8364 103.206 74.8796 103.472 74.9661C103.738 75.0526 103.959 75.1728 104.135 75.3268L104.176 76.2956Z" fill="#999591"/>
<path d="M49.9934 5.41284L50.4327 5.35204L52.5028 0.0217896H53.1902L55.2237 5.35204L55.6589 5.41284V5.92357H53.9588V5.41284L54.4062 5.33582L54.0158 4.24951H51.6447L51.242 5.33582L51.6894 5.41284V5.92357H49.9934V5.41284ZM51.8928 3.58069H53.7718L52.8526 1.0473H52.8282L51.8928 3.58069Z" fill="#999591"/>
<path d="M57.2898 2.05255L56.7855 2.14173L57.359 4.32652L57.4525 4.85752H57.4769L57.5908 4.32652L58.4693 1.53777H59.1119L59.9944 4.32652L60.1205 4.91832H60.1449L60.2629 4.32652L60.8038 2.14173L60.2913 2.05255V1.53777H61.967V2.05255L61.5847 2.1093L60.4744 5.92357H59.8277L58.9736 3.25237L58.7906 2.51464L58.7662 2.5187L58.5954 3.25237L57.7575 5.92357H57.1109L56.0005 2.1093L55.6142 2.05255V1.53777H57.2898V2.05255Z" fill="#999591"/>
<path d="M64.6269 6.00869C64.0141 6.00869 63.5261 5.80602 63.1627 5.40068C62.8021 4.99263 62.6218 4.46434 62.6218 3.81579V3.63744C62.6218 3.01321 62.8075 2.49438 63.179 2.08093C63.5532 1.66478 63.9951 1.4567 64.5049 1.4567C65.096 1.4567 65.5433 1.63505 65.847 1.99175C66.1534 2.34845 66.3066 2.82405 66.3066 3.41856V3.91713H63.4515L63.4393 3.93739C63.4474 4.35895 63.5545 4.70619 63.7606 4.97912C63.9667 5.24935 64.2554 5.38447 64.6269 5.38447C64.898 5.38447 65.1353 5.34663 65.3386 5.27097C65.5447 5.1926 65.7223 5.08586 65.8714 4.95075L66.1846 5.46959C66.0273 5.62091 65.8185 5.74927 65.5583 5.85466C65.3007 5.95735 64.9902 6.00869 64.6269 6.00869ZM64.5049 2.08498C64.2364 2.08498 64.0073 2.19848 63.8175 2.42547C63.6277 2.64976 63.5111 2.93215 63.4678 3.27263L63.4759 3.2929H65.5054V3.18751C65.5054 2.87405 65.4213 2.61193 65.2532 2.40115C65.0851 2.19037 64.8357 2.08498 64.5049 2.08498Z" fill="#999591"/>
<path d="M70.4673 2.91593H69.8653L69.7352 2.38899C69.6376 2.29711 69.5142 2.22415 69.3651 2.1701C69.2187 2.11335 69.0519 2.08498 68.8648 2.08498C68.5801 2.08498 68.3686 2.14713 68.2303 2.27144C68.0921 2.39574 68.0229 2.54572 68.0229 2.72137C68.0229 2.89431 68.0839 3.03078 68.2059 3.13076C68.328 3.23075 68.576 3.31992 68.9502 3.39829C69.5061 3.51719 69.9196 3.67933 70.1907 3.8847C70.4618 4.08737 70.5974 4.3603 70.5974 4.70349C70.5974 5.09262 70.4388 5.40743 70.1216 5.64794C69.807 5.88844 69.3949 6.00869 68.8852 6.00869C68.5516 6.00869 68.252 5.97086 67.9863 5.8952C67.7206 5.81683 67.4834 5.70469 67.2746 5.55876L67.2705 4.55757H67.8724L68.0229 5.14531C68.1151 5.22908 68.2398 5.28989 68.3971 5.32772C68.5571 5.36555 68.7198 5.38447 68.8852 5.38447C69.1698 5.38447 69.3922 5.32772 69.5522 5.21422C69.7148 5.09802 69.7962 4.9467 69.7962 4.76024C69.7962 4.58459 69.7284 4.44002 69.5928 4.32652C69.46 4.21303 69.2065 4.11439 68.8323 4.03062C68.2981 3.91442 67.8955 3.75634 67.6243 3.55637C67.3532 3.3564 67.2176 3.08618 67.2176 2.74569C67.2176 2.38899 67.3695 2.08498 67.6732 1.83367C67.9795 1.58236 68.3768 1.4567 68.8648 1.4567C69.1983 1.4567 69.4979 1.49994 69.7636 1.58641C70.0294 1.67288 70.2503 1.79313 70.4266 1.94716L70.4673 2.91593Z" fill="#999591"/>
<path d="M71.3498 3.69014C71.3498 3.04159 71.5261 2.50789 71.8785 2.08903C72.231 1.66748 72.7096 1.4567 73.3142 1.4567C73.9216 1.4567 74.4015 1.66613 74.754 2.08498C75.1092 2.50383 75.2868 3.03889 75.2868 3.69014V3.77931C75.2868 4.43326 75.1105 4.96831 74.7581 5.38447C74.4056 5.80062 73.927 6.00869 73.3224 6.00869C72.7123 6.00869 72.231 5.80062 71.8785 5.38447C71.5261 4.96561 71.3498 4.43056 71.3498 3.77931V3.69014ZM72.151 3.77931C72.151 4.2441 72.2487 4.62783 72.4439 4.93048C72.6418 5.23314 72.9346 5.38447 73.3224 5.38447C73.702 5.38447 73.9907 5.23314 74.1887 4.93048C74.3866 4.62783 74.4856 4.2441 74.4856 3.77931V3.69014C74.4856 3.23075 74.3866 2.84838 74.1887 2.54302C73.9907 2.23766 73.6993 2.08498 73.3142 2.08498C72.9292 2.08498 72.6391 2.23766 72.4439 2.54302C72.2487 2.84838 72.151 3.23075 72.151 3.69014V3.77931Z" fill="#999591"/>
<path d="M75.8643 5.41284L76.5273 5.29934V2.16605L75.8643 2.05255V1.53777H77.2471L77.3 2.1093C77.441 1.90123 77.6227 1.74044 77.845 1.62694C78.0673 1.51345 78.3249 1.4567 78.6178 1.4567C78.9106 1.4567 79.1614 1.52426 79.3702 1.65937C79.5817 1.79449 79.7403 1.99716 79.846 2.26738C79.9843 2.01877 80.1673 1.82151 80.3951 1.67559C80.6228 1.52966 80.8886 1.4567 81.1922 1.4567C81.6423 1.4567 81.9975 1.61073 82.2578 1.91879C82.5181 2.22415 82.6483 2.68489 82.6483 3.30101V5.29934L83.3112 5.41284V5.92357H81.18V5.41284L81.843 5.29934V3.2929C81.843 2.86054 81.7684 2.55518 81.6193 2.37683C81.4702 2.19577 81.2492 2.10525 80.9563 2.10525C80.6771 2.10525 80.452 2.20388 80.2812 2.40115C80.1131 2.59571 80.0155 2.84162 79.9884 3.13887V5.29934L80.6513 5.41284V5.92357H78.5242V5.41284L79.1872 5.29934V3.2929C79.1872 2.88215 79.1099 2.5822 78.9553 2.39304C78.8035 2.20118 78.5825 2.10525 78.2924 2.10525C78.0484 2.10525 77.8477 2.15524 77.6905 2.25522C77.5332 2.35521 77.4125 2.49573 77.3285 2.67678V5.29934L77.9914 5.41284V5.92357H75.8643V5.41284Z" fill="#999591"/>
<path d="M85.8654 6.00869C85.2526 6.00869 84.7645 5.80602 84.4012 5.40068C84.0406 4.99263 83.8603 4.46434 83.8603 3.81579V3.63744C83.8603 3.01321 84.046 2.49438 84.4175 2.08093C84.7916 1.66478 85.2336 1.4567 85.7433 1.4567C86.3344 1.4567 86.7818 1.63505 87.0855 1.99175C87.3919 2.34845 87.5451 2.82405 87.5451 3.41856V3.91713H84.69L84.6778 3.93739C84.6859 4.35895 84.793 4.70619 84.9991 4.97912C85.2051 5.24935 85.4939 5.38447 85.8654 5.38447C86.1365 5.38447 86.3737 5.34663 86.5771 5.27097C86.7832 5.1926 86.9608 5.08586 87.1099 4.95075L87.4231 5.46959C87.2658 5.62091 87.057 5.74927 86.7967 5.85466C86.5391 5.95735 86.2287 6.00869 85.8654 6.00869ZM85.7433 2.08498C85.4749 2.08498 85.2458 2.19848 85.056 2.42547C84.8662 2.64976 84.7496 2.93215 84.7062 3.27263L84.7144 3.2929H86.7438V3.18751C86.7438 2.87405 86.6598 2.61193 86.4917 2.40115C86.3236 2.19037 86.0741 2.08498 85.7433 2.08498Z" fill="#999591"/>
<rect x="0.75" y="62.8474" width="136.246" height="1.18592" fill="#FF9000"/>
<rect x="0.75" y="15.4109" width="136.246" height="1.18592" fill="#FF9000"/>
<path d="M24.8974 34.3271C24.8974 35.3233 24.6531 36.2199 24.1644 37.0168C23.6757 37.8137 23.0205 38.4336 22.1986 38.8763C22.5985 39.1862 22.965 39.5515 23.2981 39.9721C23.6313 40.3706 23.909 40.8133 24.1311 41.3003C24.3754 41.7873 24.5642 42.2854 24.6975 42.7946C24.8308 43.3037 24.8974 43.8018 24.8974 44.2888V46.414C24.8752 47.1224 24.7308 47.7865 24.4643 48.4063C24.1977 49.004 23.8312 49.5353 23.3648 50.0002C22.8983 50.4429 22.3541 50.7971 21.7322 51.0628C21.1103 51.3506 20.4439 51.4945 19.7331 51.4945H16.6013C16.4458 51.4945 16.3125 51.4391 16.2014 51.3284C16.1126 51.2177 16.0682 51.0849 16.0682 50.93C16.0682 51.0849 16.0126 51.2177 15.9016 51.3284C15.7905 51.4391 15.6684 51.4945 15.5351 51.4945H13.7692C13.7692 51.2952 13.8026 51.1513 13.8692 51.0628C13.958 50.9742 14.0469 50.8746 14.1357 50.7639C14.2246 50.6754 14.3023 50.5426 14.369 50.3655C14.4578 50.1884 14.5022 49.9117 14.5022 49.5353V40.271C14.4356 39.6068 14.1246 39.1198 13.5693 38.8099C13.8581 38.6328 14.1691 38.5443 14.5022 38.5443V27.6196C14.5022 27.2433 14.4578 26.9666 14.369 26.7895C14.3023 26.6124 14.2246 26.4796 14.1357 26.391C14.0469 26.2803 13.958 26.1807 13.8692 26.0922C13.8026 26.0036 13.7692 25.8597 13.7692 25.6605H15.5351C15.6684 25.6605 15.7905 25.7158 15.9016 25.8265C16.0126 25.9151 16.0682 26.0368 16.0682 26.1918C16.0682 25.8376 16.2459 25.6605 16.6013 25.6605H19.7331C20.4439 25.6605 21.1103 25.7933 21.7322 26.0589C22.3541 26.3246 22.8983 26.6899 23.3648 27.1547C23.8312 27.5975 24.1977 28.1288 24.4643 28.7486C24.7308 29.3684 24.8752 30.0215 24.8974 30.7077V34.3271ZM16.3014 36.7844C16.3014 36.6294 16.2903 36.4855 16.2681 36.3527C16.2681 36.1977 16.2681 36.0538 16.2681 35.921V35.0577C16.2459 34.4821 16.2348 33.9397 16.2348 33.4306C16.2348 32.9214 16.2237 32.4455 16.2014 32.0028C16.1792 31.7592 16.1681 31.5379 16.1681 31.3386C16.1681 31.1394 16.157 30.9512 16.1348 30.7741C16.1348 30.5971 16.1237 30.431 16.1015 30.2761C16.1015 30.099 16.1015 29.9551 16.1015 29.8444C16.1015 29.7116 16.0904 29.5898 16.0682 29.4791C16.0682 29.3684 16.0682 29.2799 16.0682 29.2135V29.0142C16.046 29.0364 16.0349 29.0585 16.0349 29.0807V29.2135C16.0349 29.2799 16.0237 29.3684 16.0015 29.4791C16.0015 29.5898 16.0015 29.7116 16.0015 29.8444C16.0015 29.9551 15.9904 30.099 15.9682 30.2761C15.9682 30.431 15.9682 30.5971 15.9682 30.7741C15.946 30.9512 15.9349 31.1394 15.9349 31.3386C15.9349 31.5379 15.9238 31.7592 15.9016 32.0028C15.8794 32.4455 15.8683 32.9214 15.8683 33.4306C15.8683 33.9397 15.8572 34.4821 15.8349 35.0577V35.921C15.8349 36.0538 15.8349 36.1977 15.8349 36.3527C15.8349 36.4855 15.8238 36.6294 15.8016 36.7844V40.3374C15.8016 40.4259 15.8016 40.5034 15.8016 40.5698C15.8238 40.6362 15.8349 40.7137 15.8349 40.8022V42.0641C15.8349 42.3518 15.8349 42.6396 15.8349 42.9274C15.8572 43.1931 15.8683 43.4476 15.8683 43.6911C15.8683 43.9346 15.8683 44.1782 15.8683 44.4217C15.8905 44.6652 15.9016 44.9087 15.9016 45.1522C15.9238 45.2629 15.9349 45.3736 15.9349 45.4842C15.9349 45.5728 15.9349 45.6724 15.9349 45.7831C15.9349 45.8938 15.9349 45.9934 15.9349 46.0819C15.9571 46.1705 15.9682 46.259 15.9682 46.3476C15.9682 46.5247 15.9682 46.7018 15.9682 46.8789C15.9904 47.0338 16.0015 47.1777 16.0015 47.3106C16.0015 47.4434 16.0015 47.5651 16.0015 47.6758C16.0237 47.7644 16.0349 47.8418 16.0349 47.9083V48.0743C16.0349 48.0964 16.046 48.1186 16.0682 48.1407V47.9083C16.0682 47.8418 16.0682 47.7644 16.0682 47.6758C16.0904 47.5651 16.1015 47.4434 16.1015 47.3106C16.1015 47.1777 16.1015 47.0338 16.1015 46.8789C16.1237 46.7018 16.1348 46.5247 16.1348 46.3476C16.157 46.259 16.1681 46.1705 16.1681 46.0819C16.1681 45.9934 16.1681 45.8938 16.1681 45.7831C16.1681 45.6724 16.1681 45.5728 16.1681 45.4842C16.1903 45.3736 16.2014 45.2629 16.2014 45.1522C16.2014 44.9087 16.2014 44.6652 16.2014 44.4217C16.2237 44.1782 16.2348 43.9346 16.2348 43.6911C16.2348 43.4476 16.2348 43.1931 16.2348 42.9274C16.257 42.6396 16.2681 42.3518 16.2681 42.0641V41.2339C16.2681 41.0347 16.2792 40.8908 16.3014 40.8022V36.7844ZM23.1649 45.7499C23.1427 45.8163 23.1315 45.927 23.1315 46.0819V46.6796C23.1315 46.7903 23.1204 46.8899 23.0982 46.9785C23.0982 47.067 23.0982 47.1556 23.0982 47.2441C23.0982 47.3327 23.0871 47.4102 23.0649 47.4766C23.0649 47.543 23.0649 47.6094 23.0649 47.6758V47.7754C23.0427 47.7976 23.0316 47.8308 23.0316 47.875V48.0411C23.0094 48.0632 22.9983 48.0853 22.9983 48.1075V48.1739C22.9983 48.196 22.9872 48.2182 22.965 48.2403C22.965 48.2403 22.965 48.2514 22.965 48.2735C22.965 48.2956 22.9539 48.3178 22.9316 48.3399H22.965C22.965 48.3399 22.9761 48.3178 22.9983 48.2735C22.9983 48.2735 23.0094 48.2514 23.0316 48.2071C23.0538 48.185 23.0649 48.1628 23.0649 48.1407C23.0871 48.1186 23.0982 48.0964 23.0982 48.0743C23.1204 48.0521 23.1315 48.03 23.1315 48.0079C23.1538 47.9857 23.1649 47.9525 23.1649 47.9083C23.2093 47.864 23.2315 47.8086 23.2315 47.7422C23.2759 47.6537 23.3203 47.4987 23.3648 47.2773C23.4092 47.1445 23.4314 47.056 23.4314 47.0117C23.4536 46.9674 23.4647 46.9231 23.4647 46.8789C23.4647 46.8125 23.4758 46.7571 23.498 46.7128C23.498 46.6686 23.498 46.6243 23.498 46.58C23.5203 46.5136 23.5314 46.4583 23.5314 46.414C23.5536 46.3476 23.5647 46.248 23.5647 46.1151C23.5869 46.0045 23.598 45.8938 23.598 45.7831C23.598 45.6724 23.6091 45.5617 23.6313 45.451V44.0564C23.6313 43.9457 23.6202 43.835 23.598 43.7243C23.598 43.6137 23.5869 43.503 23.5647 43.3923C23.5647 43.2595 23.5536 43.1598 23.5314 43.0934C23.5314 43.0492 23.5203 43.0049 23.498 42.9606C23.498 42.8942 23.498 42.8389 23.498 42.7946C23.4758 42.7503 23.4647 42.706 23.4647 42.6618C23.4647 42.5953 23.4536 42.54 23.4314 42.4957C23.4314 42.4515 23.4203 42.4072 23.3981 42.3629C23.3981 42.3186 23.3981 42.2744 23.3981 42.2301C23.3537 42.0973 23.3315 42.0198 23.3315 41.9976C23.3092 41.9312 23.2759 41.8538 23.2315 41.7652C23.2315 41.6988 23.2093 41.6435 23.1649 41.5992C23.1649 41.5328 23.1426 41.4774 23.0982 41.4332C23.0538 41.3446 23.0205 41.2782 22.9983 41.2339C22.9761 41.2118 22.965 41.1896 22.965 41.1675H22.9316C22.9316 41.1675 22.9427 41.1896 22.965 41.2339C22.965 41.2561 22.965 41.2782 22.965 41.3003C22.9872 41.3003 22.9983 41.3114 22.9983 41.3335C22.9983 41.3778 23.0094 41.4221 23.0316 41.4664V41.6324C23.0538 41.6767 23.0649 41.732 23.0649 41.7984C23.0649 41.9091 23.076 41.9866 23.0982 42.0309V42.2633C23.1204 42.3518 23.1315 42.4404 23.1315 42.5289C23.1315 42.6175 23.1315 42.7171 23.1315 42.8278V43.1266C23.1315 43.1709 23.1315 43.2263 23.1315 43.2927C23.1538 43.3369 23.1649 43.3812 23.1649 43.4255V45.7499ZM21.7988 44.2888C21.7988 44.0011 21.7877 43.5915 21.7655 43.0602C21.7433 42.5289 21.6656 41.9976 21.5323 41.4664C21.399 40.9351 21.188 40.4813 20.8993 40.1049C20.6327 39.7065 20.2329 39.5072 19.6998 39.5072H18.5004C18.256 39.5072 18.045 39.5958 17.8673 39.7729C17.6896 39.95 17.6008 40.1603 17.6008 40.4038V49.0372C17.6008 49.2808 17.6896 49.491 17.8673 49.6681C18.045 49.8231 18.256 49.9117 18.5004 49.9338H19.6998C20.2329 49.9338 20.6327 49.801 20.8993 49.5353C21.188 49.2475 21.399 48.9155 21.5323 48.5392C21.6656 48.1628 21.7433 47.7644 21.7655 47.3438C21.7877 46.9231 21.7988 46.569 21.7988 46.2812V44.2888ZM21.7988 30.8406C21.7988 30.5528 21.7877 30.2097 21.7655 29.8112C21.7433 29.3906 21.6656 28.9921 21.5323 28.6158C21.399 28.2395 21.188 27.9185 20.8993 27.6528C20.6327 27.365 20.2329 27.2211 19.6998 27.2211H18.5004C18.256 27.2211 18.045 27.3097 17.8673 27.4868C17.6896 27.6639 17.6008 27.8742 17.6008 28.1177V37.05C17.6008 37.2935 17.6896 37.5038 17.8673 37.6809C18.045 37.858 18.256 37.9466 18.5004 37.9466H19.6998C20.2329 37.9466 20.6327 37.8137 20.8993 37.5481C21.188 37.2824 21.399 36.9615 21.5323 36.5851C21.6656 36.1867 21.7433 35.7882 21.7655 35.3897C21.7877 34.9691 21.7988 34.6149 21.7988 34.3271V30.8406ZM23.2981 35.2237C23.3426 35.0909 23.3648 35.0023 23.3648 34.9581C23.4092 34.8695 23.4314 34.781 23.4314 34.6924C23.4536 34.6481 23.4647 34.6039 23.4647 34.5596C23.4647 34.4932 23.4758 34.4378 23.498 34.3936C23.498 34.3493 23.498 34.305 23.498 34.2607C23.5203 34.1943 23.5314 34.1279 23.5314 34.0615C23.5536 33.9951 23.5647 33.8844 23.5647 33.7294C23.5869 33.6188 23.598 33.5081 23.598 33.3974C23.598 33.2867 23.6091 33.176 23.6313 33.0653V32.3348C23.6313 32.0913 23.6313 31.8589 23.6313 31.6375C23.6313 31.394 23.6202 31.1615 23.598 30.9402C23.5758 30.8738 23.5647 30.8184 23.5647 30.7741C23.5647 30.7077 23.5536 30.6524 23.5314 30.6081C23.5314 30.4532 23.5203 30.3425 23.498 30.2761C23.4758 30.1654 23.4536 30.0658 23.4314 29.9772C23.4314 29.8887 23.4203 29.8001 23.3981 29.7116C23.3537 29.5787 23.3315 29.4902 23.3315 29.4459C23.287 29.3574 23.2648 29.291 23.2648 29.2467C23.2204 29.1581 23.1871 29.0917 23.1649 29.0475C23.1649 28.981 23.1426 28.9257 23.0982 28.8814C23.076 28.815 23.0427 28.7375 22.9983 28.649L22.9316 28.5826V28.6158C22.9316 28.6379 22.9316 28.649 22.9316 28.649C22.9539 28.649 22.965 28.6601 22.965 28.6822C22.9872 28.7043 22.9983 28.7375 22.9983 28.7818C22.9983 28.8261 23.0094 28.8704 23.0316 28.9146V29.0807C23.0538 29.1249 23.0649 29.1913 23.0649 29.2799C23.0649 29.3242 23.0649 29.3684 23.0649 29.4127C23.0871 29.4349 23.0982 29.4681 23.0982 29.5123V29.7448C23.1204 29.8333 23.1315 29.9219 23.1315 30.0104C23.1315 30.099 23.1315 30.1986 23.1315 30.3093V30.6413C23.1315 30.6856 23.1315 30.7409 23.1315 30.8074C23.1538 30.8516 23.1649 30.8959 23.1649 30.9402V33.3974C23.1427 33.4638 23.1315 33.5745 23.1315 33.7294V34.3604C23.1315 34.471 23.1204 34.5707 23.0982 34.6592C23.0982 34.7478 23.0982 34.8363 23.0982 34.9249C23.0982 35.0134 23.0871 35.1019 23.0649 35.1905C23.0649 35.2569 23.0649 35.3233 23.0649 35.3897C23.0649 35.5004 23.0538 35.5668 23.0316 35.589V35.7882C23.0094 35.7882 22.9983 35.8103 22.9983 35.8546V35.921C22.9983 35.9432 22.9872 35.9653 22.965 35.9874C22.965 35.9874 22.965 35.9985 22.965 36.0206C22.965 36.0428 22.9539 36.0649 22.9316 36.087L22.9983 36.0206C22.9983 35.9985 22.9983 35.9874 22.9983 35.9874C23.0205 35.9653 23.0316 35.9432 23.0316 35.921C23.0538 35.921 23.0649 35.8989 23.0649 35.8546C23.0871 35.8546 23.0982 35.8325 23.0982 35.7882C23.1204 35.7882 23.1315 35.7661 23.1315 35.7218C23.1538 35.6996 23.1649 35.6664 23.1649 35.6222C23.2093 35.5779 23.2315 35.5226 23.2315 35.4561C23.2759 35.3233 23.2981 35.2458 23.2981 35.2237Z" fill="#F4EDE8"/>
<path d="M37.4996 48.4063C37.5884 48.7827 37.6884 49.0594 37.7994 49.2365C37.9105 49.4136 38.0216 49.5575 38.1326 49.6681C38.2437 49.7788 38.3436 49.8785 38.4325 49.967C38.5213 50.0555 38.588 50.1994 38.6324 50.3987H36.8665C36.7111 50.3987 36.5667 50.3433 36.4334 50.2326C36.3224 50.122 36.2557 49.9891 36.2335 49.8342C36.2557 49.9891 36.2224 50.122 36.1336 50.2326C36.0447 50.3433 35.9336 50.3987 35.8004 50.3987H34.0345C33.9901 50.1994 34.0012 50.0555 34.0679 49.967C34.1345 49.8785 34.2011 49.7899 34.2678 49.7014C34.3344 49.5907 34.3899 49.4468 34.4344 49.2697C34.4788 49.0704 34.4677 48.7716 34.401 48.3731V48.3399L33.668 44.5877C33.6236 44.3663 33.5015 44.1782 33.3015 44.0232C33.1016 43.8461 32.8795 43.7575 32.6352 43.7575H30.3363C30.0919 43.7575 29.8698 43.8461 29.6699 44.0232C29.47 44.1782 29.3478 44.3663 29.3034 44.5877L28.6037 48.3399V48.3731C28.5371 48.7716 28.5149 49.0704 28.5371 49.2697C28.5815 49.4468 28.637 49.5907 28.7037 49.7014C28.7925 49.7899 28.8592 49.8785 28.9036 49.967C28.9702 50.0555 28.9924 50.1994 28.9702 50.3987H27.2044C27.0489 50.3987 26.9267 50.3433 26.8379 50.2326C26.749 50.122 26.7157 49.9891 26.7379 49.8342C26.7157 49.9891 26.6491 50.122 26.538 50.2326C26.427 50.3433 26.2937 50.3987 26.1382 50.3987H24.3724C24.3946 50.1994 24.4501 50.0555 24.539 49.967C24.6278 49.8785 24.7278 49.7788 24.8388 49.6681C24.9499 49.5575 25.0609 49.4136 25.172 49.2365C25.2831 49.0594 25.383 48.7827 25.4719 48.4063L26.9712 40.3374C27.0156 40.0274 26.9823 39.7397 26.8712 39.474C26.7601 39.2084 26.5825 38.9981 26.3381 38.8431C26.6935 38.6882 27.0156 38.6107 27.3043 38.6107L29.1035 29.1471C29.1701 28.7707 29.1812 28.494 29.1368 28.3169C29.0924 28.1177 29.0369 27.9738 28.9702 27.8853C28.9036 27.7746 28.837 27.675 28.7703 27.5864C28.7037 27.4979 28.6926 27.354 28.737 27.1547H30.9693C31.3025 27.199 31.4691 27.3872 31.4691 27.7192C31.4691 27.5643 31.5135 27.4425 31.6023 27.354C31.7134 27.2433 31.8356 27.1769 31.9688 27.1547H34.2344C34.2789 27.354 34.2678 27.4979 34.2011 27.5864C34.1567 27.675 34.1012 27.7746 34.0345 27.8853C33.9679 27.9738 33.9124 28.1177 33.8679 28.3169C33.8235 28.494 33.8346 28.7707 33.9013 29.1471L35.6671 38.6107C35.8448 38.6107 36.0114 38.6328 36.1669 38.6771C36.3224 38.7214 36.4778 38.7767 36.6333 38.8431C36.1447 39.153 35.9336 39.6511 36.0003 40.3374L37.4996 48.4063ZM29.5033 36.5187C29.5477 36.3859 29.57 36.2641 29.57 36.1535C29.5922 36.0206 29.6144 35.8989 29.6366 35.7882C29.7476 35.279 29.8365 34.8031 29.9031 34.3604C29.9698 33.8955 30.0364 33.4749 30.103 33.0985C30.1475 32.9214 30.1697 32.7443 30.1697 32.5673C30.1919 32.3902 30.2141 32.2131 30.2363 32.036C30.2585 31.881 30.2807 31.7371 30.3029 31.6043C30.3252 31.4715 30.3474 31.3497 30.3696 31.239C30.3918 31.1283 30.4029 31.0287 30.4029 30.9402C30.4029 30.8295 30.414 30.7409 30.4362 30.6745V30.5417L30.4029 30.6745C30.3807 30.7409 30.3585 30.8184 30.3363 30.907C30.314 30.9955 30.2918 31.0951 30.2696 31.2058C30.2252 31.3165 30.1919 31.4493 30.1697 31.6043C30.1475 31.7371 30.1141 31.8699 30.0697 32.0028C30.0253 32.1799 29.9809 32.3569 29.9364 32.534C29.9142 32.7111 29.8809 32.8882 29.8365 33.0653C29.7254 33.4417 29.6144 33.8512 29.5033 34.2939C29.4145 34.7145 29.3145 35.1794 29.2035 35.6886C29.2035 35.8214 29.1924 35.9432 29.1701 36.0538C29.1479 36.1645 29.1146 36.2863 29.0702 36.4191C29.048 36.5519 29.0258 36.6847 29.0035 36.8176C28.9813 36.9283 28.9591 37.05 28.9369 37.1828C28.8703 37.4263 28.8036 37.6809 28.737 37.9466C28.6926 38.2122 28.6482 38.4779 28.6037 38.7435C28.5593 38.987 28.5038 39.2416 28.4371 39.5072C28.3927 39.7729 28.3483 40.0274 28.3039 40.271C28.2817 40.3374 28.2706 40.4038 28.2706 40.4702C28.2706 40.5145 28.2594 40.5698 28.2372 40.6362C28.1928 40.8133 28.1706 40.9461 28.1706 41.0347C28.104 41.2561 28.0595 41.4996 28.0373 41.7652C27.9929 42.0087 27.9485 42.2522 27.9041 42.4957C27.8596 42.7392 27.8263 42.9606 27.8041 43.1598C27.7375 43.669 27.6708 44.0896 27.6042 44.4217C27.5598 44.5988 27.5265 44.7759 27.5042 44.9529C27.482 45.13 27.4598 45.3071 27.4376 45.4842C27.3932 45.6392 27.3599 45.7942 27.3377 45.9491C27.3377 46.0819 27.3266 46.2037 27.3043 46.3144C27.2821 46.4251 27.271 46.5247 27.271 46.6132C27.271 46.7018 27.2599 46.7793 27.2377 46.8457C27.2377 46.8899 27.2266 46.9231 27.2044 46.9453C27.2044 46.9453 27.2044 46.9564 27.2044 46.9785V47.0117C27.2266 47.0117 27.2377 47.0006 27.2377 46.9785C27.2377 46.9342 27.2488 46.8899 27.271 46.8457C27.2932 46.8014 27.3043 46.735 27.3043 46.6464C27.3266 46.5357 27.3599 46.4251 27.4043 46.3144C27.4487 46.2037 27.482 46.0819 27.5042 45.9491C27.5487 45.8163 27.5931 45.6724 27.6375 45.5174C27.6819 45.3625 27.7153 45.1965 27.7375 45.0194C27.7819 44.8423 27.8152 44.6652 27.8374 44.4881C27.8818 44.311 27.9263 44.1228 27.9707 43.9236C28.0373 43.7022 28.0929 43.4808 28.1373 43.2595C28.1817 43.0381 28.2261 42.8057 28.2706 42.5621C28.3372 42.3186 28.4038 42.0751 28.4705 41.8316C28.4927 41.7209 28.5149 41.6102 28.5371 41.4996C28.5593 41.3667 28.5815 41.245 28.6037 41.1343L28.7037 40.7358C28.7259 40.6694 28.737 40.603 28.737 40.5366C28.737 40.4702 28.7481 40.4038 28.7703 40.3374C28.8147 40.0939 28.8703 39.8504 28.9369 39.6068C29.0035 39.3412 29.0591 39.0756 29.1035 38.8099C29.1479 38.5664 29.1924 38.3118 29.2368 38.0462C29.2812 37.7805 29.3256 37.526 29.37 37.2824C29.3923 37.1496 29.4145 37.0168 29.4367 36.884C29.4589 36.7512 29.4811 36.6294 29.5033 36.5187ZM32.3353 42.1969C32.5797 42.1747 32.7685 42.0862 32.9017 41.9312C33.0572 41.7541 33.1127 41.5438 33.0683 41.3003L32.8684 40.3374C32.7796 40.0274 32.6241 39.7397 32.402 39.474C32.2021 39.2084 31.9577 38.9981 31.669 38.8431C31.9355 38.6882 32.2243 38.6107 32.5352 38.6107L31.4691 32.9325L30.4029 38.6107C30.6917 38.6107 30.9915 38.6882 31.3025 38.8431C30.9915 38.9981 30.725 39.2084 30.5028 39.474C30.3029 39.7397 30.1697 40.0274 30.103 40.3374L29.9364 41.3003C29.892 41.5438 29.9364 41.7541 30.0697 41.9312C30.203 42.0862 30.3807 42.1747 30.6028 42.1969H32.3353ZM35.7004 46.8457C35.7004 46.8899 35.7004 46.9231 35.7004 46.9453C35.7226 46.9453 35.7337 46.9564 35.7337 46.9785V46.8457C35.7115 46.7793 35.7004 46.7018 35.7004 46.6132C35.7004 46.5247 35.6893 46.4251 35.6671 46.3144C35.6449 46.2037 35.6227 46.0819 35.6005 45.9491C35.6005 45.7942 35.5783 45.6392 35.5338 45.4842C35.5116 45.3071 35.4894 45.13 35.4672 44.9529C35.445 44.7759 35.4117 44.5988 35.3672 44.4217C35.3006 44.0896 35.234 43.669 35.1673 43.1598C35.1229 42.9606 35.0785 42.7392 35.0341 42.4957C35.0119 42.2522 34.9785 42.0087 34.9341 41.7652C34.8897 41.6324 34.8564 41.5106 34.8342 41.3999C34.8342 41.2893 34.8119 41.1675 34.7675 41.0347C34.7675 40.9461 34.7453 40.8133 34.7009 40.6362C34.7009 40.5698 34.6898 40.5145 34.6676 40.4702C34.6676 40.4038 34.6676 40.3374 34.6676 40.271C34.6232 40.0274 34.5676 39.7729 34.501 39.5072C34.4566 39.2416 34.4121 38.987 34.3677 38.7435C34.3233 38.4779 34.2678 38.2122 34.2011 37.9466C34.1567 37.6809 34.1012 37.4263 34.0345 37.1828C34.0123 37.05 33.9901 36.9283 33.9679 36.8176C33.9457 36.6847 33.9235 36.5519 33.9013 36.4191C33.8568 36.2863 33.8235 36.1645 33.8013 36.0538C33.7791 35.9432 33.7569 35.8214 33.7347 35.6886C33.6236 35.1794 33.5126 34.7145 33.4015 34.2939C33.3127 33.8512 33.2349 33.4417 33.1683 33.0653C33.1239 32.8882 33.0794 32.7111 33.035 32.534C32.9906 32.3569 32.9462 32.1799 32.9017 32.0028C32.8573 31.8699 32.8129 31.7371 32.7685 31.6043C32.7462 31.4493 32.7129 31.3165 32.6685 31.2058C32.6463 31.0951 32.6241 30.9955 32.6019 30.907C32.5797 30.8184 32.5574 30.7409 32.5352 30.6745L32.5019 30.5417V30.6745C32.5241 30.7852 32.5574 30.9734 32.6019 31.239C32.6019 31.3497 32.613 31.4715 32.6352 31.6043C32.6574 31.7371 32.6796 31.881 32.7018 32.036C32.724 32.2131 32.7462 32.3902 32.7685 32.5673C32.7907 32.7443 32.824 32.9214 32.8684 33.0985C32.935 33.4749 33.0017 33.8955 33.0683 34.3604C33.135 34.8031 33.2127 35.279 33.3015 35.7882C33.3238 35.8989 33.3349 36.0206 33.3349 36.1535C33.3571 36.2641 33.3904 36.3859 33.4348 36.5187C33.457 36.6294 33.4792 36.7512 33.5015 36.884C33.5237 37.0168 33.5459 37.1496 33.5681 37.2824C33.6125 37.526 33.6569 37.7805 33.7014 38.0462C33.768 38.3118 33.8235 38.5664 33.8679 38.8099C33.9124 39.0756 33.9679 39.3412 34.0345 39.6068C34.1012 39.8504 34.1567 40.0939 34.2011 40.3374C34.2233 40.4038 34.2344 40.4702 34.2344 40.5366C34.2344 40.603 34.2456 40.6694 34.2678 40.7358L34.3677 41.1343C34.3899 41.245 34.4121 41.3667 34.4344 41.4996C34.4566 41.6102 34.4788 41.7209 34.501 41.8316C34.5676 42.0751 34.6232 42.3186 34.6676 42.5621C34.712 42.8057 34.7564 43.0381 34.8008 43.2595C34.8453 43.4808 34.8897 43.7022 34.9341 43.9236C35.0008 44.1228 35.0563 44.311 35.1007 44.4881C35.1451 44.6652 35.1896 44.8423 35.234 45.0194C35.2784 45.1965 35.3228 45.3625 35.3672 45.5174C35.4339 45.8274 35.5005 46.093 35.5672 46.3144C35.6116 46.4251 35.6338 46.5357 35.6338 46.6464C35.656 46.735 35.6782 46.8014 35.7004 46.8457Z" fill="#F4EDE8"/>
<path d="M51.4787 51.7933C51.7231 51.8376 51.8897 51.9151 51.9785 52.0257C52.0896 52.1364 52.1673 52.2471 52.2117 52.3578C52.2562 52.4906 52.2784 52.6345 52.2784 52.7895C51.5676 52.7895 50.9012 52.7009 50.2793 52.5238C49.6574 52.3467 49.1021 52.059 48.6134 51.6605C48.147 51.262 47.7694 50.7418 47.4806 50.0998C47.2141 49.4578 47.0808 48.672 47.0808 47.7422V43.1931C47.0808 42.9053 47.0697 42.5511 47.0475 42.1305C47.0253 41.7099 46.9475 41.3114 46.8143 40.9351C46.681 40.5587 46.47 40.2378 46.1812 39.9721C45.9147 39.6843 45.5149 39.5404 44.9818 39.5404H43.6157C43.4158 39.5847 43.2381 39.6954 43.0827 39.8725C42.9494 40.0274 42.8828 40.2156 42.8828 40.437V48.3731C42.8828 48.7716 42.9161 49.0704 42.9827 49.2697C43.0716 49.4468 43.1604 49.5907 43.2492 49.7014C43.3381 49.7899 43.4158 49.8785 43.4825 49.967C43.5713 50.0555 43.6157 50.1994 43.6157 50.3987H41.8499C41.7166 50.3987 41.5945 50.3433 41.4834 50.2326C41.3723 50.122 41.3168 50.0002 41.3168 49.8674C41.3168 50.0002 41.2613 50.122 41.1502 50.2326C41.0614 50.3433 40.9392 50.3987 40.7837 50.3987H39.0512C39.0512 50.1994 39.0845 50.0555 39.1512 49.967C39.24 49.8785 39.3289 49.7899 39.4177 49.7014C39.5066 49.5907 39.5843 49.4468 39.6509 49.2697C39.7398 49.0926 39.7842 48.8159 39.7842 48.4395V40.3374C39.7176 39.6511 39.4066 39.153 38.8513 38.8431C39.0956 38.6882 39.4066 38.6107 39.7842 38.6107V29.1139C39.7842 28.7375 39.7398 28.4608 39.6509 28.2837C39.5843 28.1066 39.5066 27.9738 39.4177 27.8853C39.3289 27.7746 39.24 27.675 39.1512 27.5864C39.0845 27.4979 39.0512 27.354 39.0512 27.1547H40.8171C40.9503 27.1547 41.0725 27.2101 41.1835 27.3208C41.2946 27.4093 41.3501 27.5311 41.3501 27.686C41.3501 27.3318 41.5278 27.1547 41.8832 27.1547H45.0151C45.7259 27.1547 46.3922 27.2876 47.0142 27.5532C47.6361 27.8188 48.1803 28.1841 48.6467 28.649C49.1132 29.0917 49.4797 29.623 49.7462 30.2429C50.0128 30.8627 50.1571 31.5157 50.1794 32.202V34.3604C50.1794 35.2901 49.9572 36.1424 49.513 36.9172C49.0688 37.692 48.469 38.3118 47.7138 38.7767C48.469 39.2194 49.0688 39.8393 49.513 40.6362C49.9572 41.411 50.1794 42.2633 50.1794 43.1931V47.6094C50.1794 48.0743 50.1794 48.5502 50.1794 49.0372C50.2016 49.5021 50.2571 49.9338 50.3459 50.3323C50.4348 50.7086 50.5681 51.0296 50.7458 51.2952C50.9235 51.5609 51.1678 51.7269 51.4787 51.7933ZM48.4468 33.7959C48.4246 33.8401 48.4135 33.8955 48.4135 33.9619V34.7256C48.3913 34.8142 48.3802 34.9027 48.3802 34.9913C48.3802 35.0577 48.3802 35.1241 48.3802 35.1905C48.3802 35.2348 48.3691 35.268 48.3469 35.2901C48.3469 35.3123 48.3469 35.3455 48.3469 35.3897V35.589C48.3247 35.6332 48.3136 35.6886 48.3136 35.755C48.3136 35.7993 48.3024 35.8435 48.2802 35.8878C48.2802 35.9321 48.2691 35.9653 48.2469 35.9874V36.0538L48.2136 36.1203C48.2136 36.1203 48.2358 36.1092 48.2802 36.087V36.0538L48.3136 36.0206C48.3358 35.9985 48.3469 35.9874 48.3469 35.9874C48.3469 35.9653 48.358 35.9432 48.3802 35.921C48.4024 35.8767 48.4246 35.8325 48.4468 35.7882C48.469 35.7218 48.4913 35.6664 48.5135 35.6222C48.5357 35.5779 48.5468 35.5558 48.5468 35.5558C48.5468 35.5336 48.5579 35.5004 48.5801 35.4561C48.6023 35.4119 48.6134 35.3787 48.6134 35.3565C48.6134 35.3122 48.6245 35.268 48.6467 35.2237C48.6689 35.1794 48.6801 35.1462 48.6801 35.1241C48.6801 35.1019 48.6912 35.0687 48.7134 35.0245C48.7134 34.9802 48.7134 34.947 48.7134 34.9249C48.7356 34.8806 48.7467 34.8363 48.7467 34.792C48.7689 34.7035 48.78 34.6149 48.78 34.5264C48.8022 34.4378 48.8244 34.3493 48.8466 34.2607C48.8689 34.1943 48.88 34.0947 48.88 33.9619C48.88 33.9176 48.88 33.8733 48.88 33.8291C48.9022 33.7848 48.9133 33.7405 48.9133 33.6962V32.534C48.9133 32.4012 48.9022 32.3016 48.88 32.2352V32.1024C48.88 32.0581 48.8689 32.036 48.8466 32.036C48.8466 32.0138 48.8466 31.9806 48.8466 31.9363C48.8466 31.8257 48.8244 31.6596 48.78 31.4383C48.7578 31.394 48.7467 31.3497 48.7467 31.3054C48.7467 31.2612 48.7356 31.2169 48.7134 31.1726C48.7134 31.1505 48.7023 31.1394 48.6801 31.1394C48.6801 31.1173 48.6801 31.0951 48.6801 31.073C48.6801 31.0509 48.6689 31.0398 48.6467 31.0398C48.6467 31.0177 48.6467 30.9955 48.6467 30.9734C48.6245 30.9291 48.6134 30.8959 48.6134 30.8738C48.6134 30.8516 48.6023 30.8184 48.5801 30.7741C48.5579 30.7299 48.5468 30.6967 48.5468 30.6745C48.5468 30.6524 48.5357 30.6192 48.5135 30.5749C48.4913 30.5528 48.4801 30.5306 48.4801 30.5085C48.4801 30.4864 48.469 30.4642 48.4468 30.4421C48.4024 30.3535 48.3802 30.3093 48.3802 30.3093C48.358 30.2871 48.3469 30.2761 48.3469 30.2761C48.3469 30.2539 48.3358 30.2318 48.3136 30.2097C48.2913 30.1875 48.2802 30.1654 48.2802 30.1432C48.258 30.1211 48.2469 30.099 48.2469 30.0768H48.2136C48.2136 30.0768 48.2247 30.099 48.2469 30.1432V30.2097C48.2691 30.2318 48.2802 30.2761 48.2802 30.3425C48.2802 30.3646 48.2802 30.3867 48.2802 30.4089C48.3024 30.4089 48.3136 30.431 48.3136 30.4753C48.3136 30.5417 48.3247 30.597 48.3469 30.6413V30.8074C48.3469 30.8516 48.3469 30.8848 48.3469 30.907C48.3691 30.9291 48.3802 30.9623 48.3802 31.0066C48.3802 31.2058 48.3913 31.3608 48.4135 31.4715V32.0028C48.4357 32.1134 48.4468 32.2905 48.4468 32.534V33.7959ZM41.5834 37.216C41.5834 37.1054 41.5723 36.9836 41.55 36.8508C41.55 36.718 41.55 36.5851 41.55 36.4523V35.7218C41.5278 35.2348 41.5167 34.7699 41.5167 34.3271C41.5167 33.8844 41.5056 33.4638 41.4834 33.0653C41.4612 32.8882 41.4501 32.7111 41.4501 32.534C41.4501 32.3569 41.439 32.1909 41.4168 32.036C41.4168 31.8589 41.4057 31.7039 41.3835 31.5711C41.3835 31.4383 41.3835 31.3165 41.3835 31.2058C41.3835 31.0951 41.3723 30.9955 41.3501 30.907C41.3501 30.8184 41.3501 30.7409 41.3501 30.6745V30.5085C41.3279 30.5085 41.3168 30.5196 41.3168 30.5417V30.6745C41.3168 30.7409 41.3057 30.8184 41.2835 30.907C41.2835 30.9955 41.2835 31.0951 41.2835 31.2058C41.2835 31.3165 41.2724 31.4383 41.2502 31.5711C41.2502 31.7039 41.2502 31.8589 41.2502 32.036C41.228 32.1909 41.2169 32.3569 41.2169 32.534C41.2169 32.7111 41.2058 32.8882 41.1835 33.0653C41.1613 33.4638 41.1502 33.8844 41.1502 34.3271C41.1502 34.7699 41.1391 35.2348 41.1169 35.7218V36.4523C41.1169 36.5851 41.1058 36.718 41.0836 36.8508C41.0836 36.9836 41.0836 37.1054 41.0836 37.216V40.3042C41.0836 40.4813 41.0947 40.6141 41.1169 40.7026V41.7984C41.1169 42.0419 41.1169 42.2854 41.1169 42.5289C41.1391 42.7503 41.1502 42.9717 41.1502 43.1931C41.1502 43.4366 41.1502 43.6579 41.1502 43.8572C41.1724 44.0564 41.1835 44.2556 41.1835 44.4549C41.2058 44.6541 41.2169 44.8423 41.2169 45.0194C41.2169 45.1743 41.228 45.3403 41.2502 45.5174C41.2502 45.6724 41.2502 45.8163 41.2502 45.9491C41.2724 46.0819 41.2835 46.2037 41.2835 46.3144C41.2835 46.4251 41.2835 46.5357 41.2835 46.6464C41.3057 46.735 41.3168 46.8014 41.3168 46.8457V47.0117C41.3168 47.0338 41.3279 47.0449 41.3501 47.0449V46.8457C41.3501 46.8014 41.3501 46.735 41.3501 46.6464C41.3723 46.5357 41.3835 46.4251 41.3835 46.3144C41.3835 46.2037 41.3835 46.0819 41.3835 45.9491C41.4057 45.8163 41.4168 45.6724 41.4168 45.5174C41.439 45.3403 41.4501 45.1743 41.4501 45.0194C41.4501 44.8423 41.4612 44.6541 41.4834 44.4549C41.4834 44.2556 41.4834 44.0564 41.4834 43.8572C41.5056 43.6579 41.5167 43.4366 41.5167 43.1931C41.5167 42.9717 41.5167 42.7503 41.5167 42.5289C41.5389 42.2854 41.55 42.0419 41.55 41.7984V41.0679C41.55 40.8908 41.5612 40.769 41.5834 40.7026V37.216ZM47.0808 32.3348C47.0808 32.047 47.0697 31.6928 47.0475 31.2722C47.0253 30.8516 46.9475 30.4532 46.8143 30.0768C46.681 29.7005 46.47 29.3795 46.1812 29.1139C45.9147 28.8261 45.5149 28.6822 44.9818 28.6822H43.7823C43.538 28.7043 43.327 28.8039 43.1493 28.981C42.9716 29.1581 42.8828 29.3684 42.8828 29.6119V37.0832C42.8828 37.3267 42.9716 37.537 43.1493 37.7141C43.327 37.8912 43.538 37.9798 43.7823 37.9798H44.9818C45.5149 37.9798 45.9147 37.8469 46.1812 37.5813C46.47 37.3157 46.681 36.9947 46.8143 36.6183C46.9475 36.2199 47.0253 35.8214 47.0475 35.4229C47.0697 35.0023 47.0808 34.6481 47.0808 34.3604V32.3348ZM49.3131 50.5315C49.3131 50.5315 49.302 50.5204 49.2798 50.4983L49.2465 50.4651C49.2242 50.4208 49.202 50.3765 49.1798 50.3323C49.1798 50.288 49.1576 50.2437 49.1132 50.1994C49.091 50.133 49.0688 50.0666 49.0465 50.0002C49.0243 49.9117 49.0021 49.812 48.9799 49.7014C48.9355 49.48 48.9133 49.2697 48.9133 49.0704C48.8911 48.9598 48.88 48.8491 48.88 48.7384C48.88 48.6056 48.88 48.4617 48.88 48.3067V46.5468C48.88 46.3919 48.88 46.2369 48.88 46.0819C48.88 45.927 48.8911 45.761 48.9133 45.5839C48.9133 45.4289 48.9133 45.2739 48.9133 45.119C48.9133 44.964 48.9022 44.8091 48.88 44.6541V44.1892C48.88 43.9678 48.8689 43.8129 48.8466 43.7243C48.8466 43.5694 48.8355 43.4255 48.8133 43.2927C48.8133 43.1377 48.8022 42.9938 48.78 42.861C48.7356 42.5511 48.6912 42.2854 48.6467 42.0641C48.6245 41.9534 48.6023 41.8538 48.5801 41.7652C48.5579 41.6545 48.5246 41.5438 48.4801 41.4332C48.4357 41.3225 48.4024 41.2339 48.3802 41.1675C48.358 41.1011 48.3247 41.0347 48.2802 40.9683C48.2358 40.9019 48.2025 40.8465 48.1803 40.8022C48.1581 40.758 48.1359 40.7137 48.1137 40.6694C48.0914 40.6694 48.0692 40.6584 48.047 40.6362C48.0248 40.6362 48.0137 40.6251 48.0137 40.603L48.047 40.6362C48.047 40.6584 48.0581 40.6805 48.0803 40.7026C48.0803 40.7248 48.0803 40.7469 48.0803 40.769C48.1025 40.769 48.1137 40.7912 48.1137 40.8355C48.1359 40.8576 48.147 40.8797 48.147 40.9019C48.147 40.924 48.1581 40.9572 48.1803 41.0015C48.2025 41.09 48.2358 41.245 48.2802 41.4664C48.3024 41.577 48.3136 41.6877 48.3136 41.7984C48.3358 41.9091 48.358 42.0198 48.3802 42.1305C48.3802 42.2412 48.3802 42.3629 48.3802 42.4957C48.4024 42.6064 48.4135 42.7392 48.4135 42.8942V47.0117C48.4135 47.1002 48.4135 47.1777 48.4135 47.2441C48.4357 47.3105 48.4468 47.388 48.4468 47.4766C48.4468 47.6315 48.4468 47.7865 48.4468 47.9415C48.469 48.0743 48.4913 48.2071 48.5135 48.3399C48.5357 48.4727 48.5468 48.6056 48.5468 48.7384C48.569 48.8712 48.5912 48.993 48.6134 49.1037C48.6578 49.2365 48.6912 49.3582 48.7134 49.4689C48.7356 49.5575 48.7689 49.6571 48.8133 49.7678C48.8577 49.8784 48.8911 49.967 48.9133 50.0334C48.9355 50.0998 48.9688 50.1662 49.0132 50.2326L49.0799 50.2991C49.1021 50.3212 49.1132 50.3433 49.1132 50.3655C49.1132 50.3655 49.1243 50.3765 49.1465 50.3987L49.2798 50.5315H49.3131Z" fill="#F4EDE8"/>
<path d="M61.4689 34.3604C61.4689 35.2901 61.2468 36.1424 60.8025 36.9172C60.3583 37.692 59.7586 38.3118 59.0034 38.7767C59.7586 39.2194 60.3583 39.8393 60.8025 40.6362C61.2468 41.411 61.4689 42.2633 61.4689 43.1931V45.3514C61.4467 46.0598 61.3023 46.7239 61.0358 47.3438C60.7692 47.9415 60.4027 48.4727 59.9363 48.9376C59.4698 49.3804 58.9256 49.7346 58.3037 50.0002C57.6818 50.2659 57.0154 50.3987 56.3046 50.3987H53.1394C53.0062 50.3987 52.884 50.3433 52.7729 50.2326C52.6619 50.122 52.6063 50.0002 52.6063 49.8674C52.6063 50.0002 52.5508 50.122 52.4398 50.2326C52.3509 50.3433 52.2287 50.3987 52.0733 50.3987H50.3407C50.3407 50.1994 50.3741 50.0555 50.4407 49.967C50.5295 49.8785 50.6184 49.7899 50.7072 49.7014C50.7961 49.5907 50.8738 49.4468 50.9405 49.2697C51.0293 49.0926 51.0737 48.8159 51.0737 48.4395V40.3374C51.0071 39.6511 50.6961 39.153 50.1408 38.8431C50.3852 38.6882 50.6961 38.6107 51.0737 38.6107V29.1139C51.0737 28.7375 51.0293 28.4608 50.9405 28.2837C50.8738 28.1066 50.7961 27.9738 50.7072 27.8853C50.6184 27.7746 50.5295 27.675 50.4407 27.5864C50.3741 27.4979 50.3407 27.354 50.3407 27.1547H52.1066C52.2399 27.1547 52.362 27.2101 52.4731 27.3208C52.5841 27.4093 52.6397 27.5311 52.6397 27.686C52.6397 27.3318 52.8174 27.1547 53.1728 27.1547H56.3046C57.0154 27.1547 57.6818 27.2876 58.3037 27.5532C58.9256 27.8188 59.4698 28.1841 59.9363 28.649C60.4027 29.0917 60.7692 29.623 61.0358 30.2429C61.3023 30.8627 61.4467 31.5157 61.4689 32.202V34.3604ZM52.8729 37.216C52.8729 37.1054 52.8618 36.9836 52.8396 36.8508C52.8396 36.718 52.8396 36.5851 52.8396 36.4523V35.7218C52.8174 35.2348 52.8063 34.7699 52.8063 34.3271C52.8063 33.8844 52.7952 33.4638 52.7729 33.0653C52.7507 32.8882 52.7396 32.7111 52.7396 32.534C52.7396 32.3569 52.7285 32.1909 52.7063 32.036C52.7063 31.8589 52.6952 31.7039 52.673 31.5711C52.673 31.4383 52.673 31.3165 52.673 31.2058C52.673 31.0951 52.6619 30.9955 52.6397 30.907C52.6397 30.8184 52.6397 30.7409 52.6397 30.6745V30.5085C52.6174 30.5085 52.6063 30.5196 52.6063 30.5417V30.6745C52.6063 30.7409 52.5952 30.8184 52.573 30.907C52.573 30.9955 52.573 31.0951 52.573 31.2058C52.573 31.3165 52.5619 31.4383 52.5397 31.5711C52.5397 31.7039 52.5397 31.8589 52.5397 32.036C52.5175 32.1909 52.5064 32.3569 52.5064 32.534C52.5064 32.7111 52.4953 32.8882 52.4731 33.0653C52.4509 33.4638 52.4398 33.8844 52.4398 34.3271C52.4398 34.7699 52.4286 35.2348 52.4064 35.7218V36.4523C52.4064 36.5851 52.3953 36.718 52.3731 36.8508C52.3731 36.9836 52.3731 37.1054 52.3731 37.216V40.3042C52.3731 40.4813 52.3842 40.6141 52.4064 40.7026V41.7984C52.4064 42.0419 52.4064 42.2854 52.4064 42.5289C52.4286 42.7503 52.4398 42.9717 52.4398 43.1931C52.4398 43.4366 52.4398 43.6579 52.4398 43.8572C52.462 44.0564 52.4731 44.2556 52.4731 44.4549C52.4953 44.6541 52.5064 44.8423 52.5064 45.0194C52.5064 45.1743 52.5175 45.3403 52.5397 45.5174C52.5397 45.6724 52.5397 45.8163 52.5397 45.9491C52.5619 46.0819 52.573 46.2037 52.573 46.3144C52.573 46.4251 52.573 46.5357 52.573 46.6464C52.5952 46.735 52.6063 46.8014 52.6063 46.8457V47.0117C52.6063 47.0338 52.6174 47.0449 52.6397 47.0449V46.8457C52.6397 46.8014 52.6397 46.735 52.6397 46.6464C52.6619 46.5357 52.673 46.4251 52.673 46.3144C52.673 46.2037 52.673 46.0819 52.673 45.9491C52.6952 45.8163 52.7063 45.6724 52.7063 45.5174C52.7285 45.3403 52.7396 45.1743 52.7396 45.0194C52.7396 44.8423 52.7507 44.6541 52.7729 44.4549C52.7729 44.2556 52.7729 44.0564 52.7729 43.8572C52.7952 43.6579 52.8063 43.4366 52.8063 43.1931C52.8063 42.9717 52.8063 42.7503 52.8063 42.5289C52.8285 42.2854 52.8396 42.0419 52.8396 41.7984V41.0679C52.8396 40.8908 52.8507 40.769 52.8729 40.7026V37.216ZM59.7364 44.9197C59.7141 44.964 59.703 45.0194 59.703 45.0858V45.8495C59.6808 45.938 59.6697 46.0266 59.6697 46.1151C59.6697 46.1816 59.6697 46.248 59.6697 46.3144C59.6697 46.3587 59.6586 46.3919 59.6364 46.414C59.6364 46.4361 59.6364 46.4693 59.6364 46.5136V46.7128C59.6142 46.7571 59.6031 46.8125 59.6031 46.8789C59.6031 46.9231 59.592 46.9674 59.5698 47.0117C59.5698 47.056 59.5587 47.0892 59.5365 47.1113V47.1777L59.5031 47.2441C59.5031 47.2441 59.5253 47.2331 59.5698 47.2109V47.1777L59.6031 47.1445C59.6253 47.1224 59.6364 47.1113 59.6364 47.1113C59.6364 47.0892 59.6475 47.067 59.6697 47.0449C59.6919 47.0006 59.7141 46.9564 59.7364 46.9121C59.7586 46.8457 59.7808 46.7903 59.803 46.7461C59.8252 46.7018 59.8363 46.6796 59.8363 46.6796C59.8363 46.6575 59.8474 46.6243 59.8696 46.58C59.8918 46.5357 59.9029 46.5025 59.9029 46.4804C59.9029 46.4583 59.9141 46.4251 59.9363 46.3808C59.9585 46.3365 59.9696 46.3033 59.9696 46.2812C59.9696 46.2369 59.9807 46.1926 60.0029 46.1484C60.0029 46.1041 60.0029 46.0709 60.0029 46.0487C60.0251 46.0045 60.0362 45.9602 60.0362 45.9159C60.0584 45.8274 60.0695 45.7388 60.0695 45.6503C60.0917 45.5617 60.114 45.4732 60.1362 45.3846C60.1584 45.3182 60.1695 45.2186 60.1695 45.0858C60.1695 45.0415 60.1695 44.9972 60.1695 44.9529C60.1917 44.9087 60.2028 44.8644 60.2028 44.8201V43.6579C60.2028 43.5251 60.1917 43.4255 60.1695 43.3591V43.2263C60.1695 43.182 60.1584 43.1598 60.1362 43.1598C60.1362 43.1377 60.1362 43.1156 60.1362 43.0934C60.1362 42.9827 60.1251 42.8942 60.1029 42.8278C60.1029 42.7392 60.0917 42.6507 60.0695 42.5621C60.0473 42.5179 60.0362 42.4736 60.0362 42.4293C60.0362 42.385 60.0251 42.3408 60.0029 42.2965C60.0029 42.2744 59.9918 42.2633 59.9696 42.2633C59.9696 42.2412 59.9696 42.219 59.9696 42.1969C59.9696 42.1747 59.9585 42.1637 59.9363 42.1637C59.9363 42.1415 59.9363 42.1194 59.9363 42.0973C59.9141 42.053 59.9029 42.0198 59.9029 41.9976C59.9029 41.9755 59.8918 41.9423 59.8696 41.898C59.8474 41.8538 59.8363 41.8206 59.8363 41.7984C59.8363 41.7763 59.8252 41.7431 59.803 41.6988C59.7808 41.6767 59.7697 41.6545 59.7697 41.6324C59.7697 41.6102 59.7586 41.5881 59.7364 41.566C59.6919 41.4774 59.6697 41.4332 59.6697 41.4332C59.6475 41.411 59.6364 41.3999 59.6364 41.3999C59.6364 41.3778 59.6253 41.3557 59.6031 41.3335C59.5809 41.3114 59.5698 41.2893 59.5698 41.2671L59.5031 41.2007C59.5031 41.2007 59.5142 41.2229 59.5365 41.2671V41.3335C59.5587 41.3557 59.5698 41.3999 59.5698 41.4664C59.5698 41.4885 59.5698 41.5106 59.5698 41.5328C59.592 41.5328 59.6031 41.5549 59.6031 41.5992C59.6031 41.6656 59.6142 41.7209 59.6364 41.7652V41.9312C59.6364 41.9755 59.6364 42.0087 59.6364 42.0309C59.6586 42.053 59.6697 42.0862 59.6697 42.1305C59.6697 42.3297 59.6808 42.4847 59.703 42.5953V43.1266C59.7252 43.2373 59.7364 43.4144 59.7364 43.6579V44.9197ZM58.3703 43.1931C58.3703 42.9053 58.3592 42.5511 58.337 42.1305C58.3148 41.7099 58.2371 41.3114 58.1038 40.9351C57.9705 40.5587 57.7595 40.2378 57.4707 39.9721C57.2042 39.6843 56.8044 39.5404 56.2713 39.5404H55.0719C54.8275 39.5626 54.6165 39.6622 54.4388 39.8393C54.2611 40.0164 54.1723 40.2267 54.1723 40.4702V47.9415C54.1723 48.185 54.2611 48.3953 54.4388 48.5724C54.6165 48.7495 54.8275 48.838 55.0719 48.838H56.2713C56.8044 48.838 57.2042 48.7052 57.4707 48.4395C57.7595 48.1739 57.9705 47.8529 58.1038 47.4766C58.2371 47.0781 58.3148 46.6796 58.337 46.2812C58.3592 45.8606 58.3703 45.5064 58.3703 45.2186V43.1931ZM58.3703 32.3348C58.3703 32.047 58.3592 31.6928 58.337 31.2722C58.3148 30.8516 58.2371 30.4532 58.1038 30.0768C57.9705 29.7005 57.7595 29.3795 57.4707 29.1139C57.2042 28.8261 56.8044 28.6822 56.2713 28.6822H55.0719C54.8275 28.7043 54.6165 28.8039 54.4388 28.981C54.2611 29.1581 54.1723 29.3684 54.1723 29.6119V37.0832C54.1723 37.3267 54.2611 37.537 54.4388 37.7141C54.6165 37.8912 54.8275 37.9798 55.0719 37.9798H56.2713C56.8044 37.9798 57.2042 37.8469 57.4707 37.5813C57.7595 37.3157 57.9705 36.9947 58.1038 36.6183C58.2371 36.2199 58.3148 35.8214 58.337 35.4229C58.3592 35.0023 58.3703 34.6481 58.3703 34.3604V32.3348ZM59.803 35.6222C59.8252 35.5779 59.8363 35.5558 59.8363 35.5558C59.8363 35.5336 59.8474 35.5004 59.8696 35.4561C59.8918 35.4119 59.9029 35.3787 59.9029 35.3565C59.9029 35.3122 59.9141 35.268 59.9363 35.2237C59.9585 35.1794 59.9696 35.1462 59.9696 35.1241C59.9696 35.1019 59.9807 35.0687 60.0029 35.0245C60.0029 34.9802 60.0029 34.947 60.0029 34.9249C60.0251 34.8806 60.0362 34.8363 60.0362 34.792C60.0584 34.7035 60.0695 34.6149 60.0695 34.5264C60.0917 34.4378 60.114 34.3493 60.1362 34.2607C60.1584 34.1943 60.1695 34.0947 60.1695 33.9619C60.1695 33.9176 60.1695 33.8733 60.1695 33.8291C60.1917 33.7848 60.2028 33.7405 60.2028 33.6962V32.534C60.2028 32.4012 60.1917 32.3016 60.1695 32.2352V32.1024C60.1695 32.0581 60.1584 32.036 60.1362 32.036C60.1362 32.0138 60.1362 31.9806 60.1362 31.9363C60.1362 31.8257 60.114 31.6596 60.0695 31.4383C60.0473 31.394 60.0362 31.3497 60.0362 31.3054C60.0362 31.2612 60.0251 31.2169 60.0029 31.1726C60.0029 31.1505 59.9918 31.1394 59.9696 31.1394C59.9696 31.1173 59.9696 31.0951 59.9696 31.073C59.9696 31.0509 59.9585 31.0398 59.9363 31.0398C59.9363 31.0177 59.9363 30.9955 59.9363 30.9734C59.9141 30.9291 59.9029 30.8959 59.9029 30.8738C59.9029 30.8516 59.8918 30.8184 59.8696 30.7741C59.8474 30.7299 59.8363 30.6967 59.8363 30.6745C59.8363 30.6524 59.8252 30.6192 59.803 30.5749C59.7808 30.5528 59.7697 30.5306 59.7697 30.5085C59.7697 30.4864 59.7586 30.4642 59.7364 30.4421C59.6919 30.3535 59.6697 30.3093 59.6697 30.3093C59.6475 30.2871 59.6364 30.2761 59.6364 30.2761C59.6364 30.2539 59.6253 30.2318 59.6031 30.2097C59.5809 30.1875 59.5698 30.1654 59.5698 30.1432C59.5476 30.1211 59.5365 30.099 59.5365 30.0768H59.5031C59.5031 30.0768 59.5142 30.099 59.5365 30.1432V30.2097C59.5587 30.2318 59.5698 30.2761 59.5698 30.3425C59.5698 30.3646 59.5698 30.3867 59.5698 30.4089C59.592 30.4089 59.6031 30.431 59.6031 30.4753C59.6031 30.5417 59.6142 30.597 59.6364 30.6413V30.8074C59.6364 30.8516 59.6364 30.8848 59.6364 30.907C59.6586 30.9291 59.6697 30.9623 59.6697 31.0066C59.6697 31.2058 59.6808 31.3608 59.703 31.4715V32.0028C59.7252 32.1134 59.7364 32.2905 59.7364 32.534V33.7959C59.7141 33.8401 59.703 33.8955 59.703 33.9619V34.7256C59.6808 34.8142 59.6697 34.9027 59.6697 34.9913C59.6697 35.0577 59.6697 35.1241 59.6697 35.1905C59.6697 35.2348 59.6586 35.268 59.6364 35.2901C59.6364 35.3123 59.6364 35.3455 59.6364 35.3897V35.589C59.6142 35.6332 59.6031 35.6886 59.6031 35.755C59.6031 35.7993 59.592 35.8435 59.5698 35.8878C59.5698 35.9321 59.5587 35.9653 59.5365 35.9874V36.0538L59.5031 36.1203C59.5031 36.1203 59.5253 36.1092 59.5698 36.087V36.0538L59.6031 36.0206C59.6253 35.9985 59.6364 35.9874 59.6364 35.9874C59.6364 35.9653 59.6475 35.9432 59.6697 35.921C59.6919 35.8767 59.7141 35.8325 59.7364 35.7882C59.7586 35.7218 59.7808 35.6664 59.803 35.6222Z" fill="#F4EDE8"/>
<path d="M72.8251 48.3731C72.8251 48.7716 72.8584 49.0704 72.925 49.2697C73.0139 49.4468 73.1027 49.5907 73.1915 49.7014C73.2804 49.7899 73.3581 49.8785 73.4248 49.967C73.5136 50.0555 73.558 50.1994 73.558 50.3987H64.4956C64.3623 50.3987 64.2402 50.3433 64.1291 50.2326C64.018 50.122 63.9625 50.0002 63.9625 49.8674C63.9625 50.0002 63.907 50.122 63.7959 50.2326C63.7071 50.3433 63.5849 50.3987 63.4294 50.3987H61.6969C61.6969 50.1994 61.7302 50.0555 61.7968 49.967C61.8857 49.8785 61.9746 49.7899 62.0634 49.7014C62.1522 49.5907 62.23 49.4468 62.2966 49.2697C62.3855 49.0926 62.4299 48.8159 62.4299 48.4395V40.3374C62.3633 39.6511 62.0523 39.153 61.497 38.8431C61.7413 38.6882 62.0523 38.6107 62.4299 38.6107V29.1139C62.4299 28.7375 62.3855 28.4608 62.2966 28.2837C62.23 28.1066 62.1522 27.9738 62.0634 27.8853C61.9746 27.7746 61.8857 27.675 61.7968 27.5864C61.7302 27.4979 61.6969 27.354 61.6969 27.1547H63.4627C63.596 27.1547 63.7182 27.2101 63.8292 27.3208C63.9403 27.4093 63.9958 27.5311 63.9958 27.686C63.9958 27.3318 64.1735 27.1547 64.5289 27.1547H73.558C73.558 27.354 73.5136 27.4979 73.4248 27.5864C73.3581 27.675 73.2804 27.7746 73.1915 27.8853C73.1027 27.9738 73.0139 28.1177 72.925 28.3169C72.8584 28.494 72.8251 28.7818 72.8251 29.1803V33.5966C72.0476 33.5966 71.4479 33.4527 71.0259 33.165C70.6261 32.855 70.3262 32.5119 70.1263 32.1356C69.882 31.715 69.7487 31.2169 69.7265 30.6413V29.6119C69.7265 29.3684 69.6376 29.1581 69.4599 28.981C69.2823 28.8039 69.0712 28.7043 68.8269 28.6822H66.428C66.1837 28.7043 65.9727 28.8039 65.795 28.981C65.6173 29.1581 65.5285 29.3684 65.5285 29.6119V37.0832C65.5285 37.3267 65.6173 37.537 65.795 37.7141C65.9727 37.8912 66.1837 37.9798 66.428 37.9798H66.6613C66.9056 37.9798 67.1055 37.8912 67.261 37.7141C67.4387 37.537 67.5275 37.3267 67.5275 37.0832V37.05C67.5497 36.718 67.6386 36.4302 67.7941 36.1867C67.9273 35.9653 68.1272 35.7661 68.3938 35.589C68.6603 35.4119 69.049 35.3233 69.5599 35.3233V42.1969C69.049 42.1969 68.6603 42.1083 68.3938 41.9312C68.1272 41.7541 67.9273 41.5549 67.7941 41.3335C67.6386 41.09 67.5497 40.8022 67.5275 40.4702C67.5275 40.2267 67.4387 40.0164 67.261 39.8393C67.1055 39.6622 66.9056 39.5626 66.6613 39.5404H66.428C66.1837 39.5626 65.9727 39.6622 65.795 39.8393C65.6173 40.0164 65.5285 40.2267 65.5285 40.4702V47.9415C65.5285 48.185 65.6173 48.3953 65.795 48.5724C65.9727 48.7495 66.1837 48.838 66.428 48.838H68.8269C69.0712 48.838 69.2823 48.7495 69.4599 48.5724C69.6376 48.3953 69.7265 48.185 69.7265 47.9415V46.8789C69.7487 46.3254 69.882 45.8384 70.1263 45.4178C70.3262 45.0415 70.6261 44.6984 71.0259 44.3885C71.4479 44.0785 72.0476 43.9236 72.8251 43.9236V48.3731ZM64.2291 37.216C64.2291 37.1054 64.2179 36.9836 64.1957 36.8508C64.1957 36.718 64.1957 36.5851 64.1957 36.4523V35.7218C64.1735 35.2348 64.1624 34.7699 64.1624 34.3271C64.1624 33.8844 64.1513 33.4638 64.1291 33.0653C64.1069 32.8882 64.0958 32.7111 64.0958 32.534C64.0958 32.3569 64.0847 32.1909 64.0625 32.036C64.0625 31.8589 64.0514 31.7039 64.0292 31.5711C64.0292 31.4383 64.0292 31.3165 64.0292 31.2058C64.0292 31.0951 64.018 30.9955 63.9958 30.907C63.9958 30.8184 63.9958 30.7409 63.9958 30.6745V30.5085C63.9736 30.5085 63.9625 30.5196 63.9625 30.5417V30.6745C63.9625 30.7409 63.9514 30.8184 63.9292 30.907C63.9292 30.9955 63.9292 31.0951 63.9292 31.2058C63.9292 31.3165 63.9181 31.4383 63.8959 31.5711C63.8959 31.7039 63.8959 31.8589 63.8959 32.036C63.8737 32.1909 63.8626 32.3569 63.8626 32.534C63.8626 32.7111 63.8515 32.8882 63.8292 33.0653C63.807 33.4638 63.7959 33.8844 63.7959 34.3271C63.7959 34.7699 63.7848 35.2348 63.7626 35.7218V36.4523C63.7626 36.5851 63.7515 36.718 63.7293 36.8508C63.7293 36.9836 63.7293 37.1054 63.7293 37.216V40.3042C63.7293 40.4813 63.7404 40.6141 63.7626 40.7026V41.7984C63.7626 42.0419 63.7626 42.2854 63.7626 42.5289C63.7848 42.7503 63.7959 42.9717 63.7959 43.1931C63.7959 43.4366 63.7959 43.6579 63.7959 43.8572C63.8181 44.0564 63.8292 44.2556 63.8292 44.4549C63.8515 44.6541 63.8626 44.8423 63.8626 45.0194C63.8626 45.1743 63.8737 45.3403 63.8959 45.5174C63.8959 45.6724 63.8959 45.8163 63.8959 45.9491C63.9181 46.0819 63.9292 46.2037 63.9292 46.3144C63.9292 46.4251 63.9292 46.5357 63.9292 46.6464C63.9514 46.735 63.9625 46.8014 63.9625 46.8457V47.0117C63.9625 47.0338 63.9736 47.0449 63.9958 47.0449V46.8457C63.9958 46.8014 63.9958 46.735 63.9958 46.6464C64.018 46.5357 64.0292 46.4251 64.0292 46.3144C64.0292 46.2037 64.0292 46.0819 64.0292 45.9491C64.0514 45.8163 64.0625 45.6724 64.0625 45.5174C64.0847 45.3403 64.0958 45.1743 64.0958 45.0194C64.0958 44.8423 64.1069 44.6541 64.1291 44.4549C64.1291 44.2556 64.1291 44.0564 64.1291 43.8572C64.1513 43.6579 64.1624 43.4366 64.1624 43.1931C64.1624 42.9717 64.1624 42.7503 64.1624 42.5289C64.1846 42.2854 64.1957 42.0419 64.1957 41.7984V41.0679C64.1957 40.8908 64.2068 40.769 64.2291 40.7026V37.216Z" fill="#F4EDE8"/>
<path d="M86.2282 51.7933C86.4725 51.8376 86.6391 51.9151 86.7279 52.0257C86.839 52.1364 86.9167 52.2471 86.9612 52.3578C87.0056 52.4906 87.0278 52.6345 87.0278 52.7895C86.317 52.7895 85.6507 52.7009 85.0287 52.5238C84.4068 52.3467 83.8515 52.059 83.3628 51.6605C82.8964 51.262 82.5188 50.7418 82.23 50.0998C81.9635 49.4578 81.8302 48.672 81.8302 47.7422V43.1931C81.8302 42.9053 81.8191 42.5511 81.7969 42.1305C81.7747 41.7099 81.697 41.3114 81.5637 40.9351C81.4304 40.5587 81.2194 40.2378 80.9307 39.9721C80.6641 39.6843 80.2643 39.5404 79.7312 39.5404H78.3652C78.1653 39.5847 77.9876 39.6954 77.8321 39.8725C77.6988 40.0274 77.6322 40.2156 77.6322 40.437V48.3731C77.6322 48.7716 77.6655 49.0704 77.7321 49.2697C77.821 49.4468 77.9098 49.5907 77.9987 49.7014C78.0875 49.7899 78.1653 49.8785 78.2319 49.967C78.3207 50.0555 78.3652 50.1994 78.3652 50.3987H76.5993C76.4661 50.3987 76.3439 50.3433 76.2328 50.2326C76.1218 50.122 76.0662 50.0002 76.0662 49.8674C76.0662 50.0002 76.0107 50.122 75.8997 50.2326C75.8108 50.3433 75.6886 50.3987 75.5332 50.3987H73.8006C73.8006 50.1994 73.834 50.0555 73.9006 49.967C73.9894 49.8785 74.0783 49.7899 74.1671 49.7014C74.256 49.5907 74.3337 49.4468 74.4004 49.2697C74.4892 49.0926 74.5336 48.8159 74.5336 48.4395V40.3374C74.467 39.6511 74.156 39.153 73.6007 38.8431C73.8451 38.6882 74.156 38.6107 74.5336 38.6107V29.1139C74.5336 28.7375 74.4892 28.4608 74.4004 28.2837C74.3337 28.1066 74.256 27.9738 74.1671 27.8853C74.0783 27.7746 73.9894 27.675 73.9006 27.5864C73.834 27.4979 73.8006 27.354 73.8006 27.1547H75.5665C75.6997 27.1547 75.8219 27.2101 75.933 27.3208C76.044 27.4093 76.0996 27.5311 76.0996 27.686C76.0996 27.3318 76.2773 27.1547 76.6327 27.1547H79.7645C80.4753 27.1547 81.1417 27.2876 81.7636 27.5532C82.3855 27.8188 82.9297 28.1841 83.3962 28.649C83.8626 29.0917 84.2291 29.623 84.4956 30.2429C84.7622 30.8627 84.9066 31.5157 84.9288 32.202V34.3604C84.9288 35.2901 84.7067 36.1424 84.2624 36.9172C83.8182 37.692 83.2185 38.3118 82.4633 38.7767C83.2185 39.2194 83.8182 39.8393 84.2624 40.6362C84.7067 41.411 84.9288 42.2633 84.9288 43.1931V47.6094C84.9288 48.0743 84.9288 48.5502 84.9288 49.0372C84.951 49.5021 85.0065 49.9338 85.0954 50.3323C85.1842 50.7086 85.3175 51.0296 85.4952 51.2952C85.6729 51.5609 85.9172 51.7269 86.2282 51.7933ZM83.1963 33.7959C83.174 33.8401 83.1629 33.8955 83.1629 33.9619V34.7256C83.1407 34.8142 83.1296 34.9027 83.1296 34.9913C83.1296 35.0577 83.1296 35.1241 83.1296 35.1905C83.1296 35.2348 83.1185 35.268 83.0963 35.2901C83.0963 35.3123 83.0963 35.3455 83.0963 35.3897V35.589C83.0741 35.6332 83.063 35.6886 83.063 35.755C83.063 35.7993 83.0519 35.8435 83.0297 35.8878C83.0297 35.9321 83.0186 35.9653 82.9964 35.9874V36.0538L82.963 36.1203C82.963 36.1203 82.9852 36.1092 83.0297 36.087V36.0538L83.063 36.0206C83.0852 35.9985 83.0963 35.9874 83.0963 35.9874C83.0963 35.9653 83.1074 35.9432 83.1296 35.921C83.1518 35.8767 83.174 35.8325 83.1963 35.7882C83.2185 35.7218 83.2407 35.6664 83.2629 35.6222C83.2851 35.5779 83.2962 35.5558 83.2962 35.5558C83.2962 35.5336 83.3073 35.5004 83.3295 35.4561C83.3517 35.4119 83.3628 35.3787 83.3628 35.3565C83.3628 35.3122 83.3739 35.268 83.3962 35.2237C83.4184 35.1794 83.4295 35.1462 83.4295 35.1241C83.4295 35.1019 83.4406 35.0687 83.4628 35.0245C83.4628 34.9802 83.4628 34.947 83.4628 34.9249C83.485 34.8806 83.4961 34.8363 83.4961 34.792C83.5183 34.7035 83.5294 34.6149 83.5294 34.5264C83.5516 34.4378 83.5739 34.3493 83.5961 34.2607C83.6183 34.1943 83.6294 34.0947 83.6294 33.9619C83.6294 33.9176 83.6294 33.8733 83.6294 33.8291C83.6516 33.7848 83.6627 33.7405 83.6627 33.6962V32.534C83.6627 32.4012 83.6516 32.3016 83.6294 32.2352V32.1024C83.6294 32.0581 83.6183 32.036 83.5961 32.036C83.5961 32.0138 83.5961 31.9806 83.5961 31.9363C83.5961 31.8257 83.5739 31.6596 83.5294 31.4383C83.5072 31.394 83.4961 31.3497 83.4961 31.3054C83.4961 31.2612 83.485 31.2169 83.4628 31.1726C83.4628 31.1505 83.4517 31.1394 83.4295 31.1394C83.4295 31.1173 83.4295 31.0951 83.4295 31.073C83.4295 31.0509 83.4184 31.0398 83.3962 31.0398C83.3962 31.0177 83.3962 30.9955 83.3962 30.9734C83.3739 30.9291 83.3628 30.8959 83.3628 30.8738C83.3628 30.8516 83.3517 30.8184 83.3295 30.7741C83.3073 30.7299 83.2962 30.6967 83.2962 30.6745C83.2962 30.6524 83.2851 30.6192 83.2629 30.5749C83.2407 30.5528 83.2296 30.5306 83.2296 30.5085C83.2296 30.4864 83.2185 30.4642 83.1963 30.4421C83.1518 30.3535 83.1296 30.3093 83.1296 30.3093C83.1074 30.2871 83.0963 30.2761 83.0963 30.2761C83.0963 30.2539 83.0852 30.2318 83.063 30.2097C83.0408 30.1875 83.0297 30.1654 83.0297 30.1432C83.0075 30.1211 82.9964 30.099 82.9964 30.0768H82.963C82.963 30.0768 82.9741 30.099 82.9964 30.1432V30.2097C83.0186 30.2318 83.0297 30.2761 83.0297 30.3425C83.0297 30.3646 83.0297 30.3867 83.0297 30.4089C83.0519 30.4089 83.063 30.431 83.063 30.4753C83.063 30.5417 83.0741 30.597 83.0963 30.6413V30.8074C83.0963 30.8516 83.0963 30.8848 83.0963 30.907C83.1185 30.9291 83.1296 30.9623 83.1296 31.0066C83.1296 31.2058 83.1407 31.3608 83.1629 31.4715V32.0028C83.1852 32.1134 83.1963 32.2905 83.1963 32.534V33.7959ZM76.3328 37.216C76.3328 37.1054 76.3217 36.9836 76.2995 36.8508C76.2995 36.718 76.2995 36.5851 76.2995 36.4523V35.7218C76.2773 35.2348 76.2662 34.7699 76.2662 34.3271C76.2662 33.8844 76.255 33.4638 76.2328 33.0653C76.2106 32.8882 76.1995 32.7111 76.1995 32.534C76.1995 32.3569 76.1884 32.1909 76.1662 32.036C76.1662 31.8589 76.1551 31.7039 76.1329 31.5711C76.1329 31.4383 76.1329 31.3165 76.1329 31.2058C76.1329 31.0951 76.1218 30.9955 76.0996 30.907C76.0996 30.8184 76.0996 30.7409 76.0996 30.6745V30.5085C76.0774 30.5085 76.0662 30.5196 76.0662 30.5417V30.6745C76.0662 30.7409 76.0551 30.8184 76.0329 30.907C76.0329 30.9955 76.0329 31.0951 76.0329 31.2058C76.0329 31.3165 76.0218 31.4383 75.9996 31.5711C75.9996 31.7039 75.9996 31.8589 75.9996 32.036C75.9774 32.1909 75.9663 32.3569 75.9663 32.534C75.9663 32.7111 75.9552 32.8882 75.933 33.0653C75.9108 33.4638 75.8997 33.8844 75.8997 34.3271C75.8997 34.7699 75.8886 35.2348 75.8663 35.7218V36.4523C75.8663 36.5851 75.8552 36.718 75.833 36.8508C75.833 36.9836 75.833 37.1054 75.833 37.216V40.3042C75.833 40.4813 75.8441 40.6141 75.8663 40.7026V41.7984C75.8663 42.0419 75.8663 42.2854 75.8663 42.5289C75.8886 42.7503 75.8997 42.9717 75.8997 43.1931C75.8997 43.4366 75.8997 43.6579 75.8997 43.8572C75.9219 44.0564 75.933 44.2556 75.933 44.4549C75.9552 44.6541 75.9663 44.8423 75.9663 45.0194C75.9663 45.1743 75.9774 45.3403 75.9996 45.5174C75.9996 45.6724 75.9996 45.8163 75.9996 45.9491C76.0218 46.0819 76.0329 46.2037 76.0329 46.3144C76.0329 46.4251 76.0329 46.5357 76.0329 46.6464C76.0551 46.735 76.0662 46.8014 76.0662 46.8457V47.0117C76.0662 47.0338 76.0774 47.0449 76.0996 47.0449V46.8457C76.0996 46.8014 76.0996 46.735 76.0996 46.6464C76.1218 46.5357 76.1329 46.4251 76.1329 46.3144C76.1329 46.2037 76.1329 46.0819 76.1329 45.9491C76.1551 45.8163 76.1662 45.6724 76.1662 45.5174C76.1884 45.3403 76.1995 45.1743 76.1995 45.0194C76.1995 44.8423 76.2106 44.6541 76.2328 44.4549C76.2328 44.2556 76.2328 44.0564 76.2328 43.8572C76.255 43.6579 76.2662 43.4366 76.2662 43.1931C76.2662 42.9717 76.2662 42.7503 76.2662 42.5289C76.2884 42.2854 76.2995 42.0419 76.2995 41.7984V41.0679C76.2995 40.8908 76.3106 40.769 76.3328 40.7026V37.216ZM81.8302 32.3348C81.8302 32.047 81.8191 31.6928 81.7969 31.2722C81.7747 30.8516 81.697 30.4532 81.5637 30.0768C81.4304 29.7005 81.2194 29.3795 80.9307 29.1139C80.6641 28.8261 80.2643 28.6822 79.7312 28.6822H78.5318C78.2874 28.7043 78.0764 28.8039 77.8987 28.981C77.721 29.1581 77.6322 29.3684 77.6322 29.6119V37.0832C77.6322 37.3267 77.721 37.537 77.8987 37.7141C78.0764 37.8912 78.2874 37.9798 78.5318 37.9798H79.7312C80.2643 37.9798 80.6641 37.8469 80.9307 37.5813C81.2194 37.3157 81.4304 36.9947 81.5637 36.6183C81.697 36.2199 81.7747 35.8214 81.7969 35.4229C81.8191 35.0023 81.8302 34.6481 81.8302 34.3604V32.3348ZM84.0625 50.5315C84.0625 50.5315 84.0514 50.5204 84.0292 50.4983L83.9959 50.4651C83.9737 50.4208 83.9515 50.3765 83.9292 50.3323C83.9292 50.288 83.907 50.2437 83.8626 50.1994C83.8404 50.133 83.8182 50.0666 83.796 50.0002C83.7738 49.9117 83.7516 49.812 83.7293 49.7014C83.6849 49.48 83.6627 49.2697 83.6627 49.0704C83.6405 48.9598 83.6294 48.8491 83.6294 48.7384C83.6294 48.6056 83.6294 48.4617 83.6294 48.3067V46.5468C83.6294 46.3919 83.6294 46.2369 83.6294 46.0819C83.6294 45.927 83.6405 45.761 83.6627 45.5839C83.6627 45.4289 83.6627 45.2739 83.6627 45.119C83.6627 44.964 83.6516 44.8091 83.6294 44.6541V44.1892C83.6294 43.9678 83.6183 43.8129 83.5961 43.7243C83.5961 43.5694 83.585 43.4255 83.5628 43.2927C83.5628 43.1377 83.5516 42.9938 83.5294 42.861C83.485 42.5511 83.4406 42.2854 83.3962 42.0641C83.3739 41.9534 83.3517 41.8538 83.3295 41.7652C83.3073 41.6545 83.274 41.5438 83.2296 41.4332C83.1852 41.3225 83.1518 41.2339 83.1296 41.1675C83.1074 41.1011 83.0741 41.0347 83.0297 40.9683C82.9852 40.9019 82.9519 40.8465 82.9297 40.8022C82.9075 40.758 82.8853 40.7137 82.8631 40.6694C82.8409 40.6694 82.8186 40.6584 82.7964 40.6362C82.7742 40.6362 82.7631 40.6251 82.7631 40.603L82.7964 40.6362C82.7964 40.6584 82.8076 40.6805 82.8298 40.7026C82.8298 40.7248 82.8298 40.7469 82.8298 40.769C82.852 40.769 82.8631 40.7912 82.8631 40.8355C82.8853 40.8576 82.8964 40.8797 82.8964 40.9019C82.8964 40.924 82.9075 40.9572 82.9297 41.0015C82.9519 41.09 82.9852 41.245 83.0297 41.4664C83.0519 41.577 83.063 41.6877 83.063 41.7984C83.0852 41.9091 83.1074 42.0198 83.1296 42.1305C83.1296 42.2412 83.1296 42.3629 83.1296 42.4957C83.1518 42.6064 83.1629 42.7392 83.1629 42.8942V47.0117C83.1629 47.1002 83.1629 47.1777 83.1629 47.2441C83.1852 47.3105 83.1963 47.388 83.1963 47.4766C83.1963 47.6315 83.1963 47.7865 83.1963 47.9415C83.2185 48.0743 83.2407 48.2071 83.2629 48.3399C83.2851 48.4727 83.2962 48.6056 83.2962 48.7384C83.3184 48.8712 83.3406 48.993 83.3628 49.1037C83.4073 49.2365 83.4406 49.3582 83.4628 49.4689C83.485 49.5575 83.5183 49.6571 83.5628 49.7678C83.6072 49.8784 83.6405 49.967 83.6627 50.0334C83.6849 50.0998 83.7182 50.1662 83.7627 50.2326L83.8293 50.2991C83.8515 50.3212 83.8626 50.3433 83.8626 50.3655C83.8626 50.3655 83.8737 50.3765 83.8959 50.3987L84.0292 50.5315H84.0625Z" fill="#F4EDE8"/>
<ellipse rx="1.78488" ry="1.77887" transform="matrix(1 0 0 -1 7.85007 39.0081)" fill="#999591"/>
<ellipse rx="1.78488" ry="1.77887" transform="matrix(1 0 0 -1 130.103 39.0081)" fill="#999591"/>
<path fill-rule="evenodd" clip-rule="evenodd" d="M108.81 39.9221C109.521 39.9221 110.51 39.8074 111.132 39.4739C111.292 39.3882 111.448 39.2942 111.599 39.1921C112.354 38.7272 112.897 38.0737 113.342 37.2989C113.786 36.5241 114.008 35.6718 114.008 34.7421V32.5837C113.986 31.8975 113.841 31.2444 113.575 30.6246C113.308 30.0047 112.942 29.4734 112.475 29.0307C112.009 28.5658 111.465 28.2006 110.843 27.9349C110.221 27.6693 109.555 27.5364 108.844 27.5364H105.712C105.356 27.5364 105.179 27.7135 105.179 28.0677C105.179 27.9128 105.123 27.791 105.012 27.7025C104.901 27.5918 104.779 27.5364 104.646 27.5364H102.88C102.88 27.7357 102.913 27.8796 102.98 27.9681C103.069 28.0567 103.157 28.1563 103.246 28.267C103.335 28.3555 103.413 28.4883 103.48 28.6654C103.568 28.8425 103.613 29.1193 103.613 29.4956V38.9924C103.235 38.9924 102.924 39.0699 102.68 39.2248C103.235 39.5347 103.546 40.0328 103.613 40.7191V48.8213C103.613 49.1976 103.568 49.4743 103.48 49.6514C103.413 49.8285 103.335 49.9724 103.246 50.0831L102.98 50.3487C102.913 50.4373 102.88 50.5812 102.88 50.7804H104.612C104.768 50.7804 104.89 50.725 104.979 50.6144C105.09 50.5037 105.145 50.3819 105.145 50.2491C105.145 50.3819 105.201 50.5037 105.312 50.6144C105.423 50.725 105.545 50.7804 105.679 50.7804H107.444C107.444 50.5812 107.4 50.4373 107.311 50.3487C107.244 50.2602 107.167 50.1716 107.078 50.0831C106.989 49.9724 106.9 49.8285 106.811 49.6514C106.745 49.4522 106.711 49.1533 106.711 48.7548V40.8187C106.711 40.5973 106.778 40.4092 106.911 40.2542C107.067 40.0771 107.244 39.9664 107.444 39.9221H108.81ZM110.876 31.6539C110.898 32.0746 110.909 32.4287 110.909 32.7165V34.7421C110.909 35.0299 110.898 35.384 110.876 35.8046C110.854 36.2031 110.776 36.6016 110.643 37.0001C110.51 37.3764 110.299 37.6974 110.01 37.963C109.743 38.2287 109.343 38.3615 108.81 38.3615H107.611C107.367 38.3615 107.156 38.2729 106.978 38.0958C106.8 37.9187 106.711 37.7084 106.711 37.4649V29.9937C106.711 29.7502 106.8 29.5399 106.978 29.3628C107.156 29.1857 107.367 29.086 107.611 29.0639H108.81C109.343 29.0639 109.743 29.2078 110.01 29.4956C110.299 29.7612 110.51 30.0822 110.643 30.4585C110.776 30.8349 110.854 31.2333 110.876 31.6539ZM112.242 34.3436C112.242 34.2772 112.253 34.2218 112.275 34.1776V32.9158C112.275 32.6723 112.264 32.4952 112.242 32.3845V31.8532C112.22 31.7425 112.209 31.5875 112.209 31.3883C112.209 31.344 112.198 31.3108 112.176 31.2887V31.1891V31.023C112.153 30.9788 112.142 30.9234 112.142 30.857C112.142 30.8127 112.131 30.7906 112.109 30.7906V30.7242C112.109 30.6578 112.098 30.6135 112.076 30.5914V30.525L112.042 30.4585H112.076C112.076 30.4807 112.087 30.5028 112.109 30.525C112.109 30.5471 112.12 30.5692 112.142 30.5914C112.164 30.6135 112.176 30.6356 112.176 30.6578L112.209 30.691L112.275 30.8238C112.298 30.8459 112.309 30.8681 112.309 30.8902C112.309 30.9124 112.32 30.9345 112.342 30.9566C112.364 31.0009 112.375 31.0341 112.375 31.0562C112.375 31.0784 112.387 31.1116 112.409 31.1559C112.431 31.2001 112.442 31.2333 112.442 31.2555C112.442 31.2776 112.453 31.3108 112.475 31.3551V31.4215C112.498 31.4215 112.509 31.4326 112.509 31.4547V31.5211C112.531 31.5211 112.542 31.5322 112.542 31.5543C112.564 31.5986 112.575 31.6429 112.575 31.6872C112.575 31.7314 112.586 31.7757 112.609 31.82C112.653 32.0413 112.675 32.2074 112.675 32.3181V32.4177C112.697 32.4177 112.709 32.4398 112.709 32.4841V32.6169C112.731 32.6833 112.742 32.7829 112.742 32.9158V34.078C112.742 34.1222 112.731 34.1665 112.709 34.2108V34.3436C112.709 34.4764 112.697 34.576 112.675 34.6425L112.609 34.9081C112.609 34.9966 112.598 35.0852 112.575 35.1737C112.575 35.218 112.564 35.2623 112.542 35.3066V35.4062C112.52 35.4505 112.509 35.4837 112.509 35.5058C112.509 35.5279 112.498 35.5611 112.475 35.6054C112.453 35.6497 112.442 35.694 112.442 35.7382C112.442 35.7604 112.431 35.7936 112.409 35.8379C112.387 35.8821 112.375 35.9153 112.375 35.9375L112.342 36.0039C112.32 36.0482 112.298 36.1035 112.275 36.1699L112.209 36.3027C112.187 36.3249 112.176 36.347 112.176 36.3691L112.142 36.4024L112.109 36.4356V36.4688L112.042 36.502L112.076 36.4356V36.3691C112.098 36.347 112.109 36.3138 112.109 36.2695C112.131 36.2253 112.142 36.181 112.142 36.1367C112.142 36.0703 112.153 36.015 112.176 35.9707V35.7714V35.6718C112.198 35.6497 112.209 35.6165 112.209 35.5722V35.373C112.209 35.2844 112.22 35.1959 112.242 35.1073V34.3436ZM105.412 37.5978C105.412 37.4871 105.401 37.3653 105.379 37.2325V36.834V36.1035C105.356 35.6165 105.345 35.1516 105.345 34.7089C105.345 34.2661 105.334 33.8455 105.312 33.4471C105.29 33.27 105.279 33.0929 105.279 32.9158C105.279 32.7387 105.268 32.5726 105.245 32.4177C105.245 32.2406 105.234 32.0856 105.212 31.9528V31.5875C105.212 31.4769 105.201 31.3772 105.179 31.2887V31.0562V30.8902C105.157 30.8902 105.145 30.9013 105.145 30.9234V31.0562C105.145 31.1227 105.134 31.2001 105.112 31.2887V31.5875C105.112 31.6982 105.101 31.82 105.079 31.9528V32.4177C105.057 32.5726 105.045 32.7387 105.045 32.9158C105.045 33.0929 105.034 33.27 105.012 33.4471C104.99 33.8455 104.979 34.2661 104.979 34.7089C104.979 35.1516 104.968 35.6165 104.946 36.1035V36.834C104.946 36.9668 104.934 37.0997 104.912 37.2325V37.5978V40.6859C104.912 40.863 104.923 40.9958 104.946 41.0843V42.1801V42.9107C104.968 43.132 104.979 43.3534 104.979 43.5748V44.2389C105.001 44.4381 105.012 44.6373 105.012 44.8366C105.034 45.0358 105.045 45.224 105.045 45.4011C105.045 45.556 105.057 45.7221 105.079 45.8992V46.3308C105.101 46.4637 105.112 46.5854 105.112 46.6961V47.0282C105.134 47.1167 105.145 47.1831 105.145 47.2274V47.3934C105.145 47.4156 105.157 47.4266 105.179 47.4266V47.2274V47.0282C105.201 46.9175 105.212 46.8068 105.212 46.6961V46.3308C105.234 46.198 105.245 46.0541 105.245 45.8992C105.268 45.7221 105.279 45.556 105.279 45.4011C105.279 45.224 105.29 45.0358 105.312 44.8366V44.2389C105.334 44.0396 105.345 43.8183 105.345 43.5748V42.9107C105.368 42.6671 105.379 42.4236 105.379 42.1801V41.4496C105.379 41.2725 105.39 41.1508 105.412 41.0843V37.5978Z" fill="#F4EDE8"/>
<path fill-rule="evenodd" clip-rule="evenodd" d="M119.754 39.9221C120.464 39.9221 121.453 39.8074 122.075 39.4739C122.235 39.3882 122.391 39.2942 122.542 39.1921C123.297 38.7272 123.841 38.0737 124.285 37.2989C124.729 36.5241 124.951 35.6718 124.951 34.7421V32.5837C124.929 31.8975 124.785 31.2444 124.518 30.6246C124.251 30.0047 123.885 29.4734 123.418 29.0307C122.952 28.5658 122.408 28.2006 121.786 27.9349C121.164 27.6693 120.498 27.5364 119.787 27.5364H116.655C116.3 27.5364 116.122 27.7135 116.122 28.0677C116.122 27.9128 116.066 27.791 115.955 27.7025C115.844 27.5918 115.722 27.5364 115.589 27.5364H113.823C113.823 27.7357 113.856 27.8796 113.923 27.9681C114.012 28.0567 114.101 28.1563 114.189 28.267C114.278 28.3555 114.356 28.4883 114.423 28.6654C114.512 28.8425 114.556 29.1193 114.556 29.4956V38.9924C114.178 38.9924 113.867 39.0699 113.623 39.2248C114.178 39.5347 114.489 40.0328 114.556 40.7191V48.8213C114.556 49.1976 114.512 49.4743 114.423 49.6514C114.356 49.8285 114.278 49.9724 114.189 50.0831L113.923 50.3487C113.856 50.4373 113.823 50.5812 113.823 50.7804H115.555C115.711 50.7804 115.833 50.725 115.922 50.6144C116.033 50.5037 116.089 50.3819 116.089 50.2491C116.089 50.3819 116.144 50.5037 116.255 50.6144C116.366 50.725 116.488 50.7804 116.622 50.7804H118.387C118.387 50.5812 118.343 50.4373 118.254 50.3487C118.188 50.2602 118.11 50.1716 118.021 50.0831C117.932 49.9724 117.843 49.8285 117.754 49.6514C117.688 49.4522 117.655 49.1533 117.655 48.7548V40.8187C117.655 40.5973 117.721 40.4092 117.854 40.2542C118.01 40.0771 118.188 39.9664 118.387 39.9221H119.754ZM121.819 31.6539C121.841 32.0746 121.853 32.4287 121.853 32.7165V34.7421C121.853 35.0299 121.841 35.384 121.819 35.8046C121.797 36.2031 121.719 36.6016 121.586 37.0001C121.453 37.3764 121.242 37.6974 120.953 37.963C120.686 38.2287 120.287 38.3615 119.754 38.3615H118.554C118.31 38.3615 118.099 38.2729 117.921 38.0958C117.743 37.9187 117.655 37.7084 117.655 37.4649V29.9937C117.655 29.7502 117.743 29.5399 117.921 29.3628C118.099 29.1857 118.31 29.086 118.554 29.0639H119.754C120.287 29.0639 120.686 29.2078 120.953 29.4956C121.242 29.7612 121.453 30.0822 121.586 30.4585C121.719 30.8349 121.797 31.2333 121.819 31.6539ZM123.185 34.3436C123.185 34.2772 123.196 34.2218 123.219 34.1776V32.9158C123.219 32.6723 123.207 32.4952 123.185 32.3845V31.8532C123.163 31.7425 123.152 31.5875 123.152 31.3883C123.152 31.344 123.141 31.3108 123.119 31.2887V31.1891V31.023C123.096 30.9788 123.085 30.9234 123.085 30.857C123.085 30.8127 123.074 30.7906 123.052 30.7906V30.7242C123.052 30.6578 123.041 30.6135 123.019 30.5914V30.525L122.985 30.4585H123.019C123.019 30.4807 123.03 30.5028 123.052 30.525C123.052 30.5471 123.063 30.5692 123.085 30.5914C123.108 30.6135 123.119 30.6356 123.119 30.6578L123.152 30.691L123.219 30.8238C123.241 30.8459 123.252 30.8681 123.252 30.8902C123.252 30.9124 123.263 30.9345 123.285 30.9566C123.307 31.0009 123.319 31.0341 123.319 31.0562C123.319 31.0784 123.33 31.1116 123.352 31.1559C123.374 31.2001 123.385 31.2333 123.385 31.2555C123.385 31.2776 123.396 31.3108 123.418 31.3551V31.4215C123.441 31.4215 123.452 31.4326 123.452 31.4547V31.5211C123.474 31.5211 123.485 31.5322 123.485 31.5543C123.507 31.5986 123.518 31.6429 123.518 31.6872C123.518 31.7314 123.53 31.7757 123.552 31.82C123.596 32.0413 123.618 32.2074 123.618 32.3181V32.4177C123.641 32.4177 123.652 32.4398 123.652 32.4841V32.6169C123.674 32.6833 123.685 32.7829 123.685 32.9158V34.078C123.685 34.1222 123.674 34.1665 123.652 34.2108V34.3436C123.652 34.4764 123.641 34.576 123.618 34.6425L123.552 34.9081C123.552 34.9966 123.541 35.0852 123.518 35.1737C123.518 35.218 123.507 35.2623 123.485 35.3066V35.4062C123.463 35.4505 123.452 35.4837 123.452 35.5058C123.452 35.5279 123.441 35.5611 123.418 35.6054C123.396 35.6497 123.385 35.694 123.385 35.7382C123.385 35.7604 123.374 35.7936 123.352 35.8379C123.33 35.8821 123.319 35.9153 123.319 35.9375L123.285 36.0039C123.263 36.0482 123.241 36.1035 123.219 36.1699L123.152 36.3027C123.13 36.3249 123.119 36.347 123.119 36.3691L123.085 36.4024L123.052 36.4356V36.4688L122.985 36.502L123.019 36.4356V36.3691C123.041 36.347 123.052 36.3138 123.052 36.2695C123.074 36.2253 123.085 36.181 123.085 36.1367C123.085 36.0703 123.096 36.015 123.119 35.9707V35.7714V35.6718C123.141 35.6497 123.152 35.6165 123.152 35.5722V35.373C123.152 35.2844 123.163 35.1959 123.185 35.1073V34.3436ZM116.355 37.5978C116.355 37.4871 116.344 37.3653 116.322 37.2325V36.834V36.1035C116.3 35.6165 116.288 35.1516 116.288 34.7089C116.288 34.2661 116.277 33.8455 116.255 33.4471C116.233 33.27 116.222 33.0929 116.222 32.9158C116.222 32.7387 116.211 32.5726 116.189 32.4177C116.189 32.2406 116.177 32.0856 116.155 31.9528V31.5875C116.155 31.4769 116.144 31.3772 116.122 31.2887V31.0562V30.8902C116.1 30.8902 116.089 30.9013 116.089 30.9234V31.0562C116.089 31.1227 116.077 31.2001 116.055 31.2887V31.5875C116.055 31.6982 116.044 31.82 116.022 31.9528V32.4177C116 32.5726 115.989 32.7387 115.989 32.9158C115.989 33.0929 115.978 33.27 115.955 33.4471C115.933 33.8455 115.922 34.2661 115.922 34.7089C115.922 35.1516 115.911 35.6165 115.889 36.1035V36.834C115.889 36.9668 115.878 37.0997 115.855 37.2325V37.5978V40.6859C115.855 40.863 115.866 40.9958 115.889 41.0843V42.1801V42.9107C115.911 43.132 115.922 43.3534 115.922 43.5748V44.2389C115.944 44.4381 115.955 44.6373 115.955 44.8366C115.978 45.0358 115.989 45.224 115.989 45.4011C115.989 45.556 116 45.7221 116.022 45.8992V46.3308C116.044 46.4637 116.055 46.5854 116.055 46.6961V47.0282C116.077 47.1167 116.089 47.1831 116.089 47.2274V47.3934C116.089 47.4156 116.1 47.4266 116.122 47.4266V47.2274V47.0282C116.144 46.9175 116.155 46.8068 116.155 46.6961V46.3308C116.177 46.198 116.189 46.0541 116.189 45.8992C116.211 45.7221 116.222 45.556 116.222 45.4011C116.222 45.224 116.233 45.0358 116.255 44.8366V44.2389C116.277 44.0396 116.288 43.8183 116.288 43.5748V42.9107C116.311 42.6671 116.322 42.4236 116.322 42.1801V41.4496C116.322 41.2725 116.333 41.1508 116.355 41.0843V37.5978Z" fill="#F4EDE8"/>
<path d="M101.462 48.5298C101.558 48.9348 101.665 49.2326 101.784 49.4232C101.904 49.6137 102.023 49.7686 102.142 49.8877C102.262 50.0068 102.369 50.114 102.465 50.2093C102.56 50.3046 102.632 50.4594 102.679 50.6738H100.782C100.615 50.6738 100.46 50.6143 100.317 50.4952C100.197 50.3761 100.126 50.2331 100.102 50.0664C100.126 50.2331 100.09 50.3761 99.9946 50.4952C99.8992 50.6143 99.7798 50.6738 99.6367 50.6738H97.7395C97.6917 50.4594 97.7037 50.3046 97.7753 50.2093C97.8469 50.114 97.9185 50.0187 97.9901 49.9234C98.0616 49.8043 98.1213 49.6495 98.169 49.4589C98.2168 49.2445 98.2048 48.9229 98.1332 48.4941V48.4584L97.3457 44.4205C97.298 44.1823 97.1667 43.9798 96.952 43.813C96.7372 43.6225 96.4985 43.5272 96.236 43.5272H93.7661C93.5036 43.5272 93.265 43.6225 93.0502 43.813C92.8354 43.9798 92.7042 44.1823 92.6565 44.4205L91.9047 48.4584V48.4941C91.8331 48.9229 91.8093 49.2445 91.8331 49.4589C91.8809 49.6495 91.9405 49.8043 92.0121 49.9234C92.1076 50.0187 92.1792 50.114 92.2269 50.2093C92.2985 50.3046 92.3224 50.4594 92.2985 50.6738H90.4013C90.2343 50.6738 90.103 50.6143 90.0075 50.4952C89.9121 50.3761 89.8763 50.2331 89.9002 50.0664C89.8763 50.2331 89.8047 50.3761 89.6854 50.4952C89.5661 50.6143 89.4229 50.6738 89.2558 50.6738H87.3586C87.3825 50.4594 87.4422 50.3046 87.5376 50.2093C87.6331 50.114 87.7405 50.0068 87.8598 49.8877C87.9791 49.7686 88.0984 49.6137 88.2177 49.4232C88.3371 49.2326 88.4445 48.9348 88.5399 48.5298L90.1507 39.8466C90.1985 39.5131 90.1627 39.2034 90.0433 38.9176C89.924 38.6317 89.7331 38.4054 89.4706 38.2386C89.8524 38.0719 90.1985 37.9885 90.5087 37.9885L92.4417 27.8045C92.5133 27.3995 92.5252 27.1017 92.4775 26.9111C92.4297 26.6967 92.3701 26.5419 92.2985 26.4466C92.2269 26.3275 92.1553 26.2203 92.0837 26.125C92.0121 26.0297 92.0002 25.8749 92.0479 25.6605H94.4462C94.8042 25.7081 94.9832 25.9106 94.9832 26.2679C94.9832 26.1012 95.0309 25.9702 95.1264 25.8749C95.2457 25.7558 95.3769 25.6843 95.5201 25.6605H97.9543C98.002 25.8749 97.9901 26.0297 97.9185 26.125C97.8707 26.2203 97.8111 26.3275 97.7395 26.4466C97.6679 26.5419 97.6082 26.6967 97.5605 26.9111C97.5128 27.1017 97.5247 27.3995 97.5963 27.8045L99.4935 37.9885C99.6844 37.9885 99.8634 38.0123 100.03 38.06C100.197 38.1076 100.365 38.1672 100.532 38.2386C100.007 38.5721 99.7798 39.1081 99.8514 39.8466L101.462 48.5298ZM92.8712 35.7373C92.919 35.5944 92.9428 35.4633 92.9428 35.3442C92.9667 35.2013 92.9905 35.0703 93.0144 34.9512C93.1337 34.4032 93.2292 33.8911 93.3008 33.4146C93.3724 32.9144 93.444 32.4617 93.5156 32.0568C93.5633 31.8662 93.5871 31.6756 93.5871 31.485C93.611 31.2944 93.6349 31.1039 93.6587 30.9133C93.6826 30.7465 93.7065 30.5917 93.7303 30.4488C93.7542 30.3058 93.7781 30.1748 93.8019 30.0557C93.8258 29.9366 93.8377 29.8294 93.8377 29.7341C93.8377 29.615 93.8497 29.5197 93.8735 29.4482V29.3053L93.8377 29.4482C93.8139 29.5197 93.79 29.6031 93.7661 29.6984C93.7423 29.7936 93.7184 29.9008 93.6945 30.02C93.6468 30.1391 93.611 30.282 93.5871 30.4488C93.5633 30.5917 93.5275 30.7346 93.4798 30.8776C93.432 31.0681 93.3843 31.2587 93.3366 31.4493C93.3127 31.6399 93.2769 31.8304 93.2292 32.021C93.1099 32.426 92.9905 32.8667 92.8712 33.3432C92.7758 33.7958 92.6684 34.296 92.5491 34.844C92.5491 34.9869 92.5371 35.1179 92.5133 35.237C92.4894 35.3561 92.4536 35.4872 92.4059 35.6301C92.382 35.773 92.3581 35.916 92.3343 36.0589C92.3104 36.178 92.2866 36.309 92.2627 36.452C92.1911 36.714 92.1195 36.988 92.0479 37.2738C92.0002 37.5597 91.9525 37.8456 91.9047 38.1314C91.857 38.3935 91.7973 38.6674 91.7258 38.9533C91.678 39.2392 91.6303 39.5131 91.5826 39.7752C91.5587 39.8466 91.5468 39.9181 91.5468 39.9896C91.5468 40.0372 91.5348 40.0968 91.511 40.1682C91.4632 40.3588 91.4394 40.5017 91.4394 40.597C91.3678 40.8353 91.3201 41.0973 91.2962 41.3832C91.2485 41.6452 91.2007 41.9073 91.153 42.1693C91.1053 42.4313 91.0695 42.6696 91.0456 42.884C90.974 43.4319 90.9024 43.8845 90.8309 44.2418C90.7831 44.4324 90.7473 44.623 90.7235 44.8136C90.6996 45.0041 90.6757 45.1947 90.6519 45.3853C90.6041 45.5521 90.5683 45.7188 90.5445 45.8856C90.5445 46.0285 90.5326 46.1595 90.5087 46.2786C90.4848 46.3977 90.4729 46.5049 90.4729 46.6002C90.4729 46.6955 90.461 46.7789 90.4371 46.8504C90.4371 46.898 90.4252 46.9337 90.4013 46.9576C90.4013 46.9576 90.4013 46.9695 90.4013 46.9933V47.029C90.4252 47.029 90.4371 47.0171 90.4371 46.9933C90.4371 46.9457 90.449 46.898 90.4729 46.8504C90.4968 46.8027 90.5087 46.7313 90.5087 46.636C90.5326 46.5169 90.5683 46.3977 90.6161 46.2786C90.6638 46.1595 90.6996 46.0285 90.7235 45.8856C90.7712 45.7426 90.8189 45.5878 90.8667 45.421C90.9144 45.2543 90.9502 45.0756 90.974 44.885C91.0218 44.6945 91.0576 44.5039 91.0814 44.3133C91.1292 44.1227 91.1769 43.9202 91.2246 43.7058C91.2962 43.4676 91.3559 43.2294 91.4036 42.9912C91.4513 42.7529 91.499 42.5028 91.5468 42.2408C91.6184 41.9787 91.69 41.7167 91.7616 41.4546C91.7854 41.3355 91.8093 41.2164 91.8331 41.0973C91.857 40.9544 91.8809 40.8233 91.9047 40.7042L92.0121 40.2754C92.036 40.204 92.0479 40.1325 92.0479 40.061C92.0479 39.9896 92.0598 39.9181 92.0837 39.8466C92.1314 39.5846 92.1911 39.3225 92.2627 39.0605C92.3343 38.7746 92.3939 38.4888 92.4417 38.2029C92.4894 37.9408 92.5371 37.6669 92.5849 37.381C92.6326 37.0952 92.6803 36.8212 92.728 36.5592C92.7519 36.4162 92.7758 36.2733 92.7996 36.1304C92.8235 35.9874 92.8474 35.8564 92.8712 35.7373ZM95.9139 41.8477C96.1764 41.8239 96.3792 41.7286 96.5224 41.5618C96.6895 41.3713 96.7491 41.1449 96.7014 40.8829L96.4866 39.8466C96.3912 39.5131 96.2241 39.2034 95.9855 38.9176C95.7707 38.6317 95.5082 38.4054 95.198 38.2386C95.4843 38.0719 95.7946 37.9885 96.1287 37.9885L94.9832 31.8781L93.8377 37.9885C94.1479 37.9885 94.4701 38.0719 94.8042 38.2386C94.4701 38.4054 94.1837 38.6317 93.9451 38.9176C93.7303 39.2034 93.5871 39.5131 93.5156 39.8466L93.3366 40.8829C93.2888 41.1449 93.3366 41.3713 93.4798 41.5618C93.6229 41.7286 93.8139 41.8239 94.0525 41.8477H95.9139ZM99.5293 46.8504C99.5293 46.898 99.5293 46.9337 99.5293 46.9576C99.5531 46.9576 99.5651 46.9695 99.5651 46.9933V46.8504C99.5412 46.7789 99.5293 46.6955 99.5293 46.6002C99.5293 46.5049 99.5173 46.3977 99.4935 46.2786C99.4696 46.1595 99.4458 46.0285 99.4219 45.8856C99.4219 45.7188 99.398 45.5521 99.3503 45.3853C99.3264 45.1947 99.3026 45.0041 99.2787 44.8136C99.2548 44.623 99.219 44.4324 99.1713 44.2418C99.0997 43.8845 99.0281 43.4319 98.9565 42.884C98.9088 42.6696 98.8611 42.4313 98.8134 42.1693C98.7895 41.9073 98.7537 41.6452 98.706 41.3832C98.6582 41.2402 98.6224 41.1092 98.5986 40.9901C98.5986 40.871 98.5747 40.74 98.527 40.597C98.527 40.5017 98.5031 40.3588 98.4554 40.1682C98.4554 40.0968 98.4435 40.0372 98.4196 39.9896C98.4196 39.9181 98.4196 39.8466 98.4196 39.7752C98.3719 39.5131 98.3122 39.2392 98.2406 38.9533C98.1929 38.6674 98.1452 38.3935 98.0974 38.1314C98.0497 37.8456 97.9901 37.5597 97.9185 37.2738C97.8707 36.988 97.8111 36.714 97.7395 36.452C97.7156 36.309 97.6918 36.178 97.6679 36.0589C97.644 35.916 97.6202 35.773 97.5963 35.6301C97.5486 35.4872 97.5128 35.3561 97.4889 35.237C97.465 35.1179 97.4412 34.9869 97.4173 34.844C97.298 34.296 97.1787 33.7958 97.0594 33.3432C96.9639 32.8667 96.8804 32.426 96.8088 32.021C96.7611 31.8304 96.7133 31.6399 96.6656 31.4493C96.6179 31.2587 96.5701 31.0681 96.5224 30.8776C96.4747 30.7346 96.427 30.5917 96.3792 30.4488C96.3554 30.282 96.3196 30.1391 96.2718 30.02C96.248 29.9008 96.2241 29.7936 96.2003 29.6984C96.1764 29.6031 96.1525 29.5197 96.1287 29.4482L96.0929 29.3053V29.4482C96.1167 29.5673 96.1525 29.7698 96.2003 30.0557C96.2003 30.1748 96.2122 30.3058 96.236 30.4488C96.2599 30.5917 96.2838 30.7465 96.3076 30.9133C96.3315 31.1039 96.3554 31.2944 96.3792 31.485C96.4031 31.6756 96.4389 31.8662 96.4866 32.0568C96.5582 32.4617 96.6298 32.9144 96.7014 33.4146C96.773 33.8911 96.8565 34.4032 96.952 34.9512C96.9758 35.0703 96.9878 35.2013 96.9878 35.3442C97.0116 35.4633 97.0474 35.5944 97.0952 35.7373C97.119 35.8564 97.1429 35.9874 97.1667 36.1304C97.1906 36.2733 97.2145 36.4162 97.2383 36.5592C97.2861 36.8212 97.3338 37.0952 97.3815 37.381C97.4531 37.6669 97.5128 37.9408 97.5605 38.2029C97.6082 38.4888 97.6679 38.7746 97.7395 39.0605C97.8111 39.3225 97.8707 39.5846 97.9185 39.8466C97.9423 39.9181 97.9543 39.9896 97.9543 40.061C97.9543 40.1325 97.9662 40.204 97.9901 40.2754L98.0974 40.7042C98.1213 40.8233 98.1452 40.9544 98.169 41.0973C98.1929 41.2164 98.2168 41.3355 98.2406 41.4546C98.3122 41.7167 98.3719 41.9787 98.4196 42.2408C98.4673 42.5028 98.5151 42.7529 98.5628 42.9912C98.6105 43.2294 98.6582 43.4676 98.706 43.7058C98.7776 43.9202 98.8372 44.1227 98.8849 44.3133C98.9327 44.5039 98.9804 44.6945 99.0281 44.885C99.0759 45.0756 99.1236 45.2543 99.1713 45.421C99.2429 45.7545 99.3145 46.0404 99.3861 46.2786C99.4338 46.3977 99.4577 46.5169 99.4577 46.636C99.4816 46.7313 99.5054 46.8027 99.5293 46.8504Z" fill="#F4EDE8"/>
</svg>
